<svg width="200" height="81" viewBox="0 0 200 81" fill="none" xmlns="http://www.w3.org/2000/svg">
<path d="M42.7168 55.6884C44.6182 55.6771 48.8241 55.48 50.4844 55.8115C54.3187 56.5768 54.6495 63.1782 49.6465 63.2744L44.4668 63.2792L44.4492 66.9111L42.7207 66.9023C42.6572 63.2363 42.6953 59.3639 42.7168 55.6884ZM50.6182 57.6279C48.7208 57.527 46.3964 57.5879 44.4648 57.5976C44.4498 58.4253 44.2978 60.8718 44.623 61.4951L45.0273 61.8349C46.7109 61.8695 49.4742 62.1565 50.8203 61.3242C51.6952 60.4442 51.4406 59.4562 51.3887 58.2919C51.158 58.0842 50.8648 57.8035 50.6182 57.6279Z" fill="white"/>
<path d="M85.5918 59.3262C88.3346 59.3468 95.14 58.1715 94.1035 64.0605C93.9872 64.7209 93.5101 65.3161 93.0898 65.8467C91.5451 67.3526 89.2723 66.866 87.2725 66.9326C86.1616 66.9697 84.9703 66.9139 83.8516 66.9014L83.8525 55.6914L85.5869 55.6885L85.5918 59.3262ZM85.5996 61.2197L85.5898 65.1875C87.3921 65.189 89.4509 65.2362 91.2324 65.1777C91.4249 64.9971 91.6961 64.7578 91.8721 64.5732C92.9353 63.0901 92.6309 62.3912 91.2832 61.2324C89.3888 61.2185 87.4941 61.2141 85.5996 61.2197Z" fill="white"/>
<path d="M131.478 55.6857C133.668 55.6729 135.893 55.6241 138.072 55.7052C140.089 55.8183 141.814 57.7461 141.616 59.7706C141.393 62.0616 140.362 63.1842 138.008 63.2697C136.741 63.2855 135.505 63.2743 134.24 63.1964C133.639 63.1767 133.142 63.4149 133.006 64.0353C132.803 64.9504 132.874 65.9888 132.878 66.9249L131.48 66.9025C131.429 63.206 131.469 59.3877 131.478 55.6857ZM139.14 61.2618C142.448 56.6176 135.296 57.5729 132.893 57.5958C132.879 58.3889 132.712 61.1403 133.161 61.6632C133.474 62.0275 136.178 61.8718 136.796 61.8673C137.603 61.8616 138.469 61.7929 139.14 61.2618Z" fill="white"/>
<path d="M23.4157 55.6882C27.054 55.6711 30.6924 55.6752 34.3308 55.7005C34.3295 56.3554 34.3942 56.883 34.0172 57.4248C33.6654 57.6888 26.4396 57.5964 25.3296 57.5974C25.3057 58.5144 25.3248 59.5116 25.327 60.4344L33.226 60.4416L33.2222 62.178L28.4179 62.1778L25.3303 62.1818C25.3067 63.1632 25.3244 64.2007 25.3274 65.1867L34.323 65.1983L34.3211 66.916C30.687 66.9367 27.0528 66.9316 23.4188 66.9005C23.3689 63.2094 23.3967 59.3849 23.4157 55.6882Z" fill="white"/>
<path d="M148.876 55.6846L159.469 55.6942V57.5833L150.788 57.5993L150.771 60.4345L158.339 60.4421C158.365 60.7859 158.518 61.7932 158.435 62.0185C157.807 62.2833 154.56 62.1818 153.687 62.1774L150.787 62.1805L150.773 65.1874L159.47 65.1973L159.466 66.922L148.871 66.9067L148.876 55.6846Z" fill="white"/>
<path d="M68.2025 61.3584C69.3825 59.5773 71.2706 57.8219 72.6294 56.1222C73.0992 55.5346 73.9507 55.6632 74.6675 55.6852L74.6672 66.9208L72.9341 66.905L72.9244 60.1164C72.9266 59.6762 72.9638 58.9456 72.8314 58.555L72.6973 58.5213C72.3223 58.8088 72.0619 59.5927 71.6864 59.9777C70.4738 61.2208 69.3871 62.5815 68.2027 63.8374C66.2611 62.0659 65.1103 60.3429 63.2072 58.6021C63.614 60.5511 63.1433 64.7549 63.1011 66.9092L61.7154 66.9057C61.647 63.2905 61.663 59.3021 61.7158 55.6831C62.1942 55.6684 62.7578 55.691 63.2433 55.6997C64.014 56.2991 64.3758 57.0727 64.9754 57.6827C66.1155 58.8428 67.1221 60.2049 68.2025 61.3584Z" fill="white"/>
<path d="M117.015 55.6725C117.521 55.6738 118.918 55.5363 119.197 55.9967C121.244 59.362 122.548 63.5787 124.539 66.9039L122.329 66.9215C121.981 65.3458 121.548 64.6033 120.741 63.2711L119.275 63.2633C117.904 63.2563 116.532 63.2693 115.161 63.3033C114.581 64.8683 114.235 65.4842 113.443 66.9391L111.775 66.8834C112.585 64.7019 113.609 62.6332 114.627 60.5641C115.047 59.7091 116.857 56.3775 117.015 55.6725ZM118.09 57.8639C117.327 58.8164 116.677 60.6716 116.062 61.8112C116.776 61.8324 117.489 61.8599 118.202 61.8453C118.774 61.8475 119.654 61.8242 120.202 61.8678C119.856 61.2603 118.352 58.1003 118.09 57.8639Z" fill="white"/>
<path d="M192.763 55.6949C193.11 57.172 193.966 58.6054 194.637 59.9644C195.796 62.3114 197.023 64.4353 197.869 66.9195L196.216 66.9283C195.757 66.0467 194.753 63.9928 194.139 63.3043C193.677 63.2584 192.948 63.2701 192.463 63.2642C191.287 63.2626 190.182 63.2642 189.008 63.3199C188.231 64.4669 187.764 65.733 186.997 66.9048C186.435 66.9281 185.728 66.8973 185.154 66.8873C185.55 65.9526 190.462 55.9748 190.761 55.6998C191.421 55.6626 192.1 55.6841 192.763 55.6949ZM191.585 57.8629C191.121 58.832 190.196 60.5749 189.877 61.4898C190.467 61.5014 191.079 61.5225 191.666 61.524L193.24 61.5015C192.887 60.4589 192.384 58.5591 191.585 57.8629Z" fill="white"/>
<path d="M100.746 1.89956C102.228 1.87094 103.735 1.88446 105.217 1.90955C106.058 1.92382 106.499 2.11874 107.374 2.01897C107.551 2.26068 107.193 2.80207 107.029 3.07266C106.64 3.7173 106.628 4.39489 106.532 5.15508C105.996 5.67217 105.185 6.22594 104.599 6.75106C103.733 7.52582 102.981 8.32514 102.178 9.1639L101.447 9.89602C100.073 8.59252 97.5025 6.15871 96.3612 4.61495C96.1078 4.27211 95.9367 2.76773 95.8652 2.2412C97.601 2.22573 99.0438 1.96781 100.746 1.89956Z" fill="white"/>
<path d="M3.02429 55.6861L14.7129 55.6903L14.712 66.9099L12.9795 66.903C12.9439 64.364 12.9727 61.759 12.9716 59.2148L12.9693 57.5941L4.9128 57.598C4.84131 60.6274 4.895 63.8636 4.89135 66.9092L3.01758 66.9073L3.02429 55.6861Z" fill="white"/>
<path d="M167.392 55.6926L169.268 55.6904L169.281 60.4345L176.559 60.4323L176.554 55.6914L178.296 55.688L178.286 66.9075L176.563 66.9039L176.55 62.1833L169.286 62.1817L169.262 66.9189L167.391 66.9027C167.372 63.166 167.372 59.4293 167.392 55.6926Z" fill="white"/>
<path d="M108.842 2.22687C110.339 2.19457 112.16 2.183 113.643 2.28211C115.452 2.40314 117.822 2.91914 119.581 3.01038C119.474 3.9986 119.446 4.72306 119.427 5.71648C118.935 6.37153 117.819 7.17625 117.144 7.70128C116.418 8.30728 115.412 9.35019 114.698 10.0382C112.946 8.39736 110.515 5.91278 108.873 4.18044C108.823 3.5559 108.841 2.85896 108.842 2.22687Z" fill="white"/>
<path d="M92.8615 2.27464C93.452 2.20251 94.1599 2.22197 94.764 2.22206L94.7466 3.88431C92.9619 5.97757 90.3441 8.00627 88.3669 10.3748C88.0279 9.95376 87.4656 9.38835 87.0828 8.98078C85.6225 7.48244 83.5486 6.23655 83.7812 3.97798C83.7985 3.8094 83.5772 3.63068 83.5645 3.3628C84.4253 3.08677 87.2932 2.87438 88.2809 2.81758C90.0421 2.71631 91.1472 2.52636 92.8615 2.27464Z" fill="white"/>
<path d="M101.398 13.535C101.87 13.8155 105.928 17.9749 106.446 18.5785C105.562 19.7456 102.863 22.2497 101.655 23.5402L101.489 23.6499C100.853 23.4612 97.348 19.347 96.7324 18.5862C98.2669 17.0597 99.6999 15.2369 101.398 13.535Z" fill="white"/>
<path d="M108.048 6.87872C108.881 7.03917 112.131 11.0893 112.908 11.9174C111.326 13.2216 110.204 15.1431 108.279 16.7972L108.137 16.828C107.49 16.6311 104.024 12.5281 103.375 11.7138C103.953 10.9094 107.166 7.73574 108.048 6.87872Z" fill="white"/>
<path d="M108.126 20.6389C108.821 20.8743 112.28 25.0688 112.976 25.6972C111.653 26.8413 109.229 29.293 108.081 30.5975L107.989 30.6646C107.718 30.5891 106.111 28.4201 105.753 28.0387C104.979 27.215 104.093 26.4034 103.332 25.5776C104.471 24.0547 106.729 22.0218 108.126 20.6389Z" fill="white"/>
<path d="M95.0697 20.7346C95.7492 20.9823 97.1612 23.0439 97.7626 23.6551C98.3417 24.2435 99.028 24.949 99.6003 25.5447C98.3027 27.3739 96.4631 29.0797 94.8419 30.6595C94.6663 30.4735 94.5557 30.3151 94.4073 30.1114C93.2442 28.515 91.7921 27.0076 90.2695 25.7508C91.4438 24.3326 93.6261 21.8175 95.0697 20.7346Z" fill="white"/>
<path d="M121.141 3.07349C121.474 3.16163 121.832 3.22969 122.175 3.25977C125.145 3.52028 128.043 4.16539 130.99 4.58195C131.534 4.65876 132.402 4.74301 132.873 4.9898C132.898 5.36012 130.743 7.7348 130.317 8.26256C129.254 9.44613 128.456 9.97763 127.185 10.9363C126.087 9.86125 125.16 8.81091 124.195 7.66111C123.171 6.44178 122.057 5.63813 121.603 4.03949C121.533 3.79495 121.272 3.32419 121.141 3.07349Z" fill="white"/>
<path d="M94.801 6.96405C95.1698 7.18669 96.6037 8.68465 96.9645 9.05196C97.9042 10.0232 98.8703 10.9675 99.8637 11.8839C98.414 13.2745 96.5037 15.3143 95.1075 16.5588C95.0336 16.6171 94.9242 16.6257 94.8228 16.6483C94.3243 16.3949 90.9365 12.8381 90.1543 12.0875C91.9781 10.1283 93.2807 9.27425 94.801 6.96405Z" fill="white"/>
<path d="M114.702 13.918C115.623 15.01 116.676 15.9813 117.641 17.0391C118.237 17.6935 118.573 18.3233 119.149 18.9658C118.422 19.9437 115.634 23.468 114.583 23.764C114.422 23.6529 114.169 23.4765 114.066 23.3186C112.966 21.6389 111.438 20.1251 109.912 18.8163C111.667 17.1076 113.079 15.7547 114.702 13.918Z" fill="white"/>
<path d="M101.598 27.5657C102.288 27.8694 105.455 31.5569 106.089 32.4845C104.994 33.7148 102.673 35.9241 101.422 37.2004C99.9657 35.5468 98.2207 34.0586 96.7617 32.4368C97.4022 31.61 100.726 28.389 101.598 27.5657Z" fill="white"/>
<path d="M88.3362 14.2045C88.3275 14.2018 92.5802 18.4786 92.8881 18.8047C92.1174 19.5266 91.4711 20.4528 90.7588 21.221C89.966 22.0762 89.2358 22.7727 88.4946 23.6807C88.4399 23.7107 88.373 23.6967 88.3001 23.6956C86.9445 22.4689 85.3753 20.4245 84.0566 18.981C85.4849 17.4461 86.9027 15.6425 88.3362 14.2045Z" fill="white"/>
<path d="M80.8642 3.6445C81.1012 3.6236 81.2675 3.58034 81.4621 3.71996C81.6425 4.0849 82.062 4.82225 81.7318 5.19455C80.4721 6.61433 78.9961 7.85068 77.7546 9.29301C77.2371 9.89429 76.7729 10.5102 76.2349 11.0993C75.4482 10.4613 74.8217 9.83532 74.0994 9.12721C72.6597 7.72703 72.0747 6.99041 71.0898 5.27292C72.3941 5.19334 73.6609 4.75194 74.888 4.58286C76.8431 4.31347 78.9371 3.88221 80.8642 3.6445Z" fill="white"/>
<path d="M114.624 28.0495C115.473 28.0773 118.442 31.9026 118.776 32.8593C117.631 34.1473 115.708 35.965 114.455 37.2281C113.267 35.7689 111.499 33.763 110.223 32.4439C110.647 31.8958 114.038 28.5159 114.624 28.0495Z" fill="white"/>
<path d="M120.833 7.96436C121.797 8.45029 124.375 11.8022 125.365 12.7974C124.277 13.9393 122.429 15.9373 121.284 16.8978C120.497 16.4717 117.321 13.0835 116.807 12.0268C117.492 11.1424 119.894 8.9275 120.833 7.96436Z" fill="white"/>
<path d="M121.047 21.2043C122.018 21.9266 124.487 25.0656 125.191 26.1377C124.326 26.8505 123.597 27.8736 122.859 28.7326C122.259 29.43 121.696 30.0027 121.045 30.6559C119.911 29.4259 118.928 28.0664 117.709 26.9091C117.385 26.6002 117.058 26.2222 116.758 25.8875C117.929 24.3537 120.252 22.8895 121.047 21.2043Z" fill="white"/>
<path d="M108.043 34.5826C108.221 34.5896 108.473 34.7189 108.584 34.8514C109.806 36.2988 110.975 37.6211 112.317 38.9682C111.479 39.8932 110.439 40.8615 109.518 41.7094C108.899 42.2788 108.545 42.3702 107.989 43.0452C107.538 42.5128 106.459 41.6609 105.878 41.1644C104.979 40.3971 104.416 39.8465 103.629 38.9639C104.409 38.0802 107.187 35.3376 108.043 34.5826Z" fill="white"/>
<path d="M88.3473 27.9644C89.6789 29.5438 91.1973 30.9261 92.6736 32.3719C91.1548 34.3874 90.3807 35.0639 88.6512 36.8746C88.3471 37.001 84.8724 32.9408 84.4375 32.4231C85.6427 30.9715 87.1502 29.4268 88.3473 27.9644Z" fill="white"/>
<path d="M94.8333 34.6693C95.0697 34.7157 99.0246 38.7343 99.5891 39.1978C97.536 40.5545 96.9005 41.2886 95.2304 43.0041L95.1131 43.0466C95.1356 43.0538 91.0135 39.4809 90.627 39.147C91.4547 38.5642 93.5186 35.8146 94.8333 34.6693Z" fill="white"/>
<path d="M133.229 5.13916C134.482 5.42275 135.819 5.59737 137.095 5.89581C139.209 6.38995 141.371 7.02113 143.498 7.42491C142.744 8.12628 142.556 8.91071 142.203 9.8643C141.903 9.98078 141.645 10.0945 141.351 10.2288C140.522 10.7183 139.313 11.9503 138.564 12.6667C137.284 10.4277 135.188 8.98906 134.061 6.69981C133.785 6.14125 133.552 5.67596 133.229 5.13916Z" fill="white"/>
<path d="M82.123 21.5063C82.2302 21.523 85.9655 25.3012 86.3554 25.6969C85.8065 26.1657 85.184 27.071 84.6756 27.6391C83.9393 28.462 83.1859 29.2535 82.4258 30.0536C82.3739 30.1512 82.293 30.1774 82.1929 30.2309C81.3982 29.7355 79.3984 27.0578 78.4629 26.156C79.6276 24.2607 80.6392 23.1713 82.123 21.5063Z" fill="white"/>
<path d="M127.467 15.2028C127.627 15.4004 127.675 15.5742 127.804 15.747C128.839 17.1301 130.144 18.2878 130.932 19.8541C130.254 20.8408 128.287 23.3565 127.264 23.9558L127.187 23.8173C126.985 23.5318 126.771 23.2659 126.527 23.0156C125.38 21.8435 124.353 20.5808 123.254 19.366C124.144 18.292 126.391 16.2284 127.467 15.2028Z" fill="white"/>
<path d="M82.2194 8.23401C83.6636 9.4626 84.9848 11.0469 86.3941 12.2692C85.6736 12.8146 84.7809 14.0139 84.1593 14.7363C83.5386 15.4577 83.0246 15.9862 82.3438 16.6613C81.5517 17.1948 79.1809 13.7232 78.4746 13.0153C78.8503 12.5771 79.2254 11.9531 79.6387 11.472C80.6437 10.3017 81.4628 9.58572 82.2194 8.23401Z" fill="white"/>
<path d="M76.1361 15.559C76.6687 15.7895 79.3887 18.7729 79.8508 19.4187C78.7944 20.5566 76.916 22.5427 76.2668 23.9182C75.2 23.088 73.9657 21.1875 72.5098 19.8927C73.6483 18.8442 75.1352 16.8318 76.1361 15.559Z" fill="white"/>
<path d="M69.3588 5.56604C69.5094 5.57694 69.4534 5.55935 69.5826 5.69517C69.1698 7.00421 70.2022 7.0143 68.817 8.33533C67.5065 9.58521 66.3524 11.1434 65.0492 12.4518C64.5567 11.8689 64.2115 11.5302 63.6521 11.0059C61.6738 9.1305 61.8779 10.4642 62.0367 7.32391C62.8156 7.03799 64.6528 6.69759 65.5103 6.51432C66.7999 6.22609 68.083 5.90992 69.3588 5.56604Z" fill="white"/>
<path d="M120.688 34.9689C121.609 35.5635 123.331 38.145 124.301 38.967C123.082 40.241 121.83 41.4842 120.548 42.6955C119.438 41.7037 117.701 40.0761 116.766 38.9763C117.854 37.5965 119.503 36.3447 120.688 34.9689Z" fill="white"/>
<path d="M126.98 28.7155C127.593 28.9349 129.66 32.1924 130.14 32.9222C129.068 33.6713 127.695 35.6705 126.486 36.8065C125.477 35.6293 124.295 34.0455 123.26 32.7868C124.055 31.8845 125.027 31.0978 125.768 30.1339C126.149 29.6376 126.54 29.162 126.98 28.7155Z" fill="white"/>
<path d="M133.063 22.5924C133.755 23.1216 135.573 25.9909 136.207 26.8536C134.638 28.1089 134.105 29.2186 132.74 30.6349C132.367 30.4102 130.302 27.4188 129.406 26.6003C130.242 25.0874 131.938 23.9124 133.063 22.5924Z" fill="white"/>
<path d="M132.855 10.2156C133.438 10.3247 136.116 13.7506 136.555 14.3672C135.589 15.4223 134.261 16.6842 133.227 17.7293C133.147 17.8231 133.181 17.782 133.031 17.8277C132.879 17.1854 130.445 14.7333 129.703 13.3182C130.543 12.3786 131.878 10.9716 132.855 10.2156Z" fill="white"/>
<path d="M82.4684 34.9526C82.6108 35.0072 83.0471 35.7538 83.2683 35.9988C84.2158 37.0486 85.3326 38.246 86.3981 39.1607C85.3005 40.1803 84.197 41.301 83.1267 42.3567C83.0478 42.4391 82.9932 42.443 82.88 42.4871C82.3762 42.1726 79.7737 39.5316 79.2832 38.9866C80.5404 37.5227 81.4037 36.5667 82.4684 34.9526Z" fill="white"/>
<path d="M76.2809 28.7118C77.3245 29.5388 79.3452 31.671 79.7781 32.9216C78.8476 34.1122 77.8905 35.2818 76.9075 36.4294C76.4022 36.3495 74.2603 33.5678 73.418 32.7909C73.6709 32.3235 75.8397 29.3048 76.2809 28.7118Z" fill="white"/>
<path d="M144.416 7.75757C146.046 8.22409 147.725 8.77272 149.347 9.27586C150.418 9.60815 151.54 10.1978 152.645 10.412C152.189 11.1763 151.412 11.9138 150.772 12.5438C150.025 13.2904 149.419 13.8926 148.611 14.5717C147.953 13.9646 147.559 13.1826 147.002 12.531C145.729 11.0426 145.241 9.5139 144.416 7.75757Z" fill="white"/>
<path d="M70.4235 22.5621C70.7224 22.7869 73.4118 25.9776 73.7385 26.4245C73.0787 27.5064 71.7095 29.0164 70.8991 30.142L70.7596 30.1476C69.5695 29.011 68.6502 28.0467 67.8066 26.617C68.237 25.6701 69.7536 23.7341 70.4235 22.5621Z" fill="white"/>
<path d="M59.2185 8.09668C59.3707 8.11651 59.3222 8.10866 59.4563 8.23356C59.4863 8.48716 59.4871 8.90139 59.3757 9.12167C58.4071 11.036 56.5015 12.4601 55.5479 14.4107C55.1236 14.0828 54.2523 13.1982 53.8306 12.7938C52.9297 11.9458 52.3689 11.3745 51.584 10.4346C52.2473 10.2771 53.8538 9.66029 54.5749 9.42129C56.1067 8.92521 57.6555 8.48339 59.2185 8.09668Z" fill="white"/>
<path d="M70.6362 10.4834C71.3057 10.8366 73.0745 12.8457 73.7017 13.5246C72.8709 14.8046 71.4788 16.63 70.3429 17.6158L70.2428 17.6182C70.0485 17.4524 69.6799 16.8735 69.4646 16.6143C68.8287 15.854 68.1642 15.1179 67.4727 14.4078C68.4599 13.4562 69.4855 11.5853 70.6362 10.4834Z" fill="white"/>
<path d="M138.499 17.0253C138.865 17.3292 141.022 20.6197 141.375 21.1585C140.145 22.4379 140.186 23.0984 138.329 24.471C138.236 24.4167 135.676 20.8433 135.455 20.5454C136.784 19.3671 137.437 18.4113 138.499 17.0253Z" fill="white"/>
<path d="M131.912 35.8419C131.929 35.843 131.947 35.8418 131.964 35.8455C132.355 35.9295 134.039 38.6819 134.4 39.1695C133.336 40.1318 132.251 41.2276 131.197 42.2258L131.152 42.2644L130.984 42.2506C130.203 41.1183 129.342 40.25 128.807 38.9812C129.366 38.2253 131.19 36.4209 131.912 35.8419Z" fill="white"/>
<path d="M71.184 35.7219C71.5126 35.818 74.203 38.6684 74.5071 39.1006C74.1365 39.7943 72.6972 41.4423 72.1135 42.1359L71.9206 42.1638C70.9079 41.153 69.8856 40.152 68.8535 39.1609C69.6401 38.0885 70.4398 36.8371 71.184 35.7219Z" fill="white"/>
<path d="M64.9388 17.4896C65.8215 18.187 67.2614 19.7555 68.1839 20.6125C66.9737 21.755 66.4404 22.5754 65.481 23.9243L65.2762 24.0928C64.8899 24.0234 62.9707 21.5322 62.5117 21.0073C63.4469 19.5867 64.0865 19.3075 64.9388 17.4896Z" fill="white"/>
<path d="M143.353 23.9391C143.618 24.1139 145.229 27.1896 145.595 27.7404C144.948 28.6802 143.623 29.7716 142.701 31.0622C142.419 30.8166 140.794 27.8501 140.477 27.3102C141.469 26.0689 142.557 25.4087 143.353 23.9391Z" fill="white"/>
<path d="M65.4289 29.71C66.6091 30.5359 67.7342 32.0549 68.6019 33.1778C67.8441 34.1778 67.1004 35.1886 66.3712 36.2097L66.2202 36.2719C65.571 36.2131 64.4604 34.0702 63.8036 33.6768C63.708 33.6195 63.4113 33.3584 63.2969 33.2697C64.0467 32.3001 65.0822 30.8706 65.4289 29.71Z" fill="white"/>
<path d="M137.793 29.8936C138.388 30.2772 139.498 32.5126 139.894 33.2337C139.002 34.442 138.108 35.3895 137.071 36.4695C136.85 36.2634 135.287 33.817 135.018 33.4034C135.616 31.6098 136.56 31.2768 137.793 29.8936Z" fill="white"/>
<path d="M143.704 12.5548C143.894 12.6684 145.896 15.8056 146.322 16.3301C145.373 17.1084 144.516 17.898 143.894 18.964C143.318 18.7888 141.54 15.9743 141.201 15.2753C141.827 14.4476 142.961 13.4489 143.704 12.5548Z" fill="white"/>
<path d="M60.3354 24.0266C60.6903 24.1784 62.4686 26.6026 62.9793 27.1566C62.4427 28.0991 61.546 29.7557 60.8794 30.5485L60.7568 30.6021C60.2066 30.3753 58.7161 28.2274 58.2852 27.6322C58.6967 26.6335 59.7682 25.1688 60.3354 24.0266Z" fill="white"/>
<path d="M50.0199 10.9288L50.2307 10.9577C50.5723 11.9103 47.9299 15.5277 47.3461 16.4993L46.136 15.3317C45.2685 14.4482 44.9843 14.0606 44.3965 12.9709C46.066 12.6164 48.084 11.42 50.0199 10.9288Z" fill="white"/>
<path d="M60.3057 12.7276C60.9326 13.2168 62.2455 14.6954 62.7058 15.3038C61.975 16.5266 61.0023 17.4554 60.2563 18.8218L57.666 16.2838C58.6339 15.3481 59.3423 13.8063 60.3057 12.7276Z" fill="white"/>
<path d="M153.598 10.8824C155.061 11.3908 156.481 11.9009 157.872 12.5857C158.352 12.8222 158.889 13.0828 159.401 13.2321C158.952 14.0251 158.647 14.404 158.051 15.0912C157.547 15.6247 157.036 16.119 156.512 16.6293C155.629 15.3727 153.797 12.3341 153.598 10.8824Z" fill="white"/>
<path d="M133.181 74.3551C134.324 74.1281 135.438 74.8586 135.686 75.9977C135.932 77.1369 135.222 78.2638 134.086 78.5309C133.334 78.7078 132.546 78.4656 132.023 77.8971C131.5 77.3282 131.326 76.521 131.565 75.7867C131.805 75.0528 132.423 74.5057 133.181 74.3551ZM133.447 74.6627C132.998 74.8907 132.511 75.1198 132.095 75.4C132.073 76.0066 132.054 76.4649 132.105 77.068C132.709 77.5755 133.018 77.9544 133.823 77.8727C133.864 77.8687 133.906 77.8638 133.947 77.858C134.523 77.5733 134.641 77.4691 135.111 77.0309C135.149 76.4402 135.187 75.9999 135.134 75.4098C134.681 75.1358 133.985 74.7075 133.447 74.6627Z" fill="white"/>
<path d="M61.7754 74.2103C62.2021 74.7511 62.5497 75.1027 63.1162 75.4857C63.0986 76.0765 63.1048 76.6679 63.1357 77.2581C62.5322 77.7618 62.2789 78.0697 61.582 78.5638C60.9922 78.6581 60.7629 78.6369 60.168 78.5989C59.7904 77.9545 59.6015 77.7434 59.0225 77.3275C59.0072 76.647 59.0195 76.1879 59.0713 75.5091C59.5764 74.9132 59.779 74.651 60.4229 74.2191C60.8614 74.2023 61.334 74.2108 61.7754 74.2103ZM62.6191 76.3675C62.2822 75.3436 61.9674 74.6178 60.6719 74.8734C59.1587 75.0726 58.9534 76.807 60.0898 77.6204C60.5549 77.9533 61.0852 77.8996 61.6318 77.8821C62.3685 77.6264 62.423 77.0707 62.6191 76.3675Z" fill="white"/>
<path d="M148.326 19.2734C148.404 19.3458 150.15 22.3501 150.353 22.6856C149.493 23.8739 149.008 23.8627 147.995 25.584C147.421 24.3264 146.596 23.3 145.941 21.7821C146.631 20.9728 147.559 20.1519 148.326 19.2734Z" fill="white"/>
<path d="M141.837 36.4413C142.205 36.7109 142.999 38.5747 143.436 39.2113C142.316 40.0992 141.456 41.5488 140.796 42.0517C140.166 41.0505 139.457 40.3601 138.959 39.1929L141.837 36.4413Z" fill="white"/>
<path d="M55.5184 19.243C56.1345 19.592 57.2676 21.3216 57.6753 21.98C57.1178 23.1632 56.4547 24.1349 55.7059 25.1971C55.4449 24.9718 55.4013 24.6722 55.1083 24.3341C54.6118 23.761 54.1038 23.271 53.5625 22.7439C54.0719 21.7002 54.9178 20.4035 55.5184 19.243Z" fill="white"/>
<path d="M61.4699 36.2808C62.1465 36.5175 63.5379 38.5674 64.277 39.2582C63.748 39.9194 63.1288 41.0054 62.6737 41.751C62.604 41.8178 62.6171 41.7925 62.5001 41.8228C61.7831 41.1228 60.6043 40.0415 60.0508 39.2749L61.4699 36.2808Z" fill="white"/>
<path d="M71.5698 74.1949C74.0903 74.1725 74.2999 74.3046 74.278 76.4653C74.278 76.4678 74.6525 76.9986 74.7067 77.0736C74.4853 77.5881 74.3199 78.2237 73.8385 78.3942C73.1563 78.636 72.2985 78.8012 71.6205 78.5109C71.4859 78.3158 71.5185 78.1862 71.526 77.9444C71.4958 77.4142 71.4514 74.5129 71.5698 74.1949Z" fill="white"/>
<path d="M71.7935 77.8224C71.7633 77.2921 71.7791 75.5 71.7301 74.9916C71.5791 74.8667 71.754 75.2395 71.7301 74.9916C72.3852 74.9545 73.2509 74.9307 73.8563 75.2263L74.0053 75.4089C73.9236 75.6137 73.8846 75.6419 73.7255 75.797L73.6983 75.9118L73.4714 76.461C72.3213 76.3261 71.8646 76.2683 71.7999 77.6098C71.7966 77.6806 71.794 77.7514 71.7921 77.8224L71.7935 77.8224Z" fill="black"/>
<path d="M71.526 77.9444C71.4958 77.4142 71.4514 74.5129 71.5698 74.1949C71.5937 74.4428 71.5805 74.8666 71.7315 74.9916C71.81 75.5628 71.8077 76.2671 72.6499 76.1346C72.9516 76.0871 73.4271 76.0224 73.6994 75.9118L73.4725 76.461C72.3224 76.3261 71.8657 76.2683 71.801 77.6098C71.7977 77.6806 71.7951 77.7514 71.7932 77.8224L71.526 77.9444Z" fill="white"/>
<path d="M71.793 77.8224C71.7949 77.7514 71.7975 77.6806 71.8008 77.6098C71.8655 76.2683 72.3222 76.3261 73.4723 76.461C74.0253 76.7758 74.2537 77.0403 73.9822 77.6795C73.4858 78.0458 72.4531 77.8653 71.793 77.8224Z" fill="black"/>
<path d="M147.15 30.87C147.217 30.93 148.06 33.1477 148.4 33.6656C147.534 34.4619 147.152 36.0832 145.925 36.3155C145.481 35.7309 145.096 34.433 144.576 33.6879C145.509 32.7443 146.225 31.4438 147.15 30.87Z" fill="white"/>
<path d="M56.217 31.0266C56.914 31.3221 58.2226 32.8562 58.7728 33.4606C58.3076 34.3864 57.8251 35.3034 57.3256 36.2112C57.2503 36.2697 57.2529 36.248 57.1342 36.267C54.993 33.8035 54.4016 34.0029 56.217 31.0266Z" fill="white"/>
<path d="M151.968 25.8983C152.265 26.0764 153.034 28.0484 153.417 28.6988C152.665 29.5119 151.671 30.5332 151.04 31.4084C150.922 31.2974 149.734 28.5987 149.588 28.2605C150.316 27.4903 151.204 26.6486 151.968 25.8983Z" fill="white"/>
<path d="M51.5323 25.4943C51.6766 25.5942 52.6186 26.8583 52.8475 27.1081C53.2809 27.581 53.4832 27.7625 53.9984 28.1935C53.5254 29.0436 52.9546 29.9188 52.4359 30.7475C52.2719 30.9566 52.356 30.9072 52.1259 30.9606C51.5383 30.5205 50.6857 29.0435 50.2754 28.3754C50.6105 27.5827 51.3806 26.2509 51.5323 25.4943Z" fill="white"/>
<path d="M152.614 15.3753C153.28 16.257 153.944 17.4076 154.471 18.3799C153.573 19.1238 153.215 19.5362 152.545 20.4879C152.126 20.3475 151.077 17.8528 150.732 17.2622C151.356 16.6738 152.075 16.0319 152.614 15.3753Z" fill="white"/>
<path d="M139.385 74.1976C140.228 74.1769 141.204 74.082 141.96 74.4613L141.966 74.7396C141.436 75.0389 140.466 74.9877 139.851 74.9818C139.812 75.3881 139.832 75.6276 139.858 76.0297C140.466 76.0648 141.123 76.1165 141.727 76.1068C142.344 76.4292 142.855 77.2231 142.218 77.8031C141.329 78.6115 140.532 78.6337 139.393 78.6332L139.385 74.1976ZM139.853 76.4183C139.847 76.88 139.83 77.3825 139.857 77.8402C140.523 77.8661 141.983 77.9944 141.978 77.0248C141.777 76.6876 141.639 76.5621 141.283 76.3734L139.853 76.4183Z" fill="white"/>
<path d="M42.7694 13.9342L42.9669 13.9812C43.2585 14.7411 41.3697 17.6607 40.9152 18.4063C40.5055 18.0539 40.3985 17.9078 40.0784 17.481C39.7245 16.8932 39.1051 16.2901 38.5918 15.8402C40.1 15.2551 41.3271 14.5055 42.7694 13.9342Z" fill="white"/>
<path d="M51.2894 15.4385C51.8366 16.0218 52.6384 16.7068 53.2452 17.2543C52.7328 17.8721 52.078 19.0987 51.4626 19.912C51.3895 19.9908 51.3635 19.982 51.252 20.0178C50.7035 19.5447 50.1419 18.9531 49.627 18.4341C50.1322 16.7754 50.6166 16.753 51.2894 15.4385Z" fill="white"/>
<path d="M160.631 13.8726C161.37 14.0848 163.493 15.4925 164.273 15.9878L163.147 17.5296C162.861 17.9649 162.522 18.4292 162.222 18.8601C161.97 17.5102 161.467 17.0428 160.996 15.8284C160.749 15.1923 161.046 14.6232 160.631 13.8726Z" fill="white"/>
<path d="M146.036 74.2139C146.955 74.9651 146.196 74.8267 146.516 75.5146C146.883 75.7026 147.452 75.6506 147.883 75.6484C148.732 76.5186 149.327 76.8782 148.527 78.1328L148.443 78.2451C148.102 78.2814 147.998 78.4159 147.677 78.5078C147.169 78.6528 146.562 78.6351 146.034 78.6367C146.018 77.1705 146.033 75.6819 146.036 74.2139ZM146.338 77.8623C147.257 77.8704 147.693 77.975 148.451 77.4766L148.609 77.25C148.518 76.7906 148.308 76.681 147.907 76.4062L146.338 76.4023V77.8623Z" fill="white"/>
<path d="M53.4048 36.8035C54.2995 37.5792 54.6967 37.9602 55.4297 38.893C55.308 39.6061 55.1038 40.9528 54.6401 41.4593C53.7517 40.8148 53.1675 40.2061 52.4531 39.4025C52.6904 38.4539 53.0218 37.6907 53.4048 36.8035Z" fill="white"/>
<path d="M78.3037 74.197C79.1618 74.1817 80.3643 74.1218 81.1885 74.2405C81.344 74.4609 81.3026 74.3799 81.2633 74.7068C80.8131 75.1509 79.8344 74.9851 79.1055 74.985C79.0806 75.2911 79.1048 75.7818 79.1108 76.1025C79.5161 76.1 80.4104 76.0587 80.7471 76.1832C80.8496 76.4366 80.8392 76.3262 80.7773 76.6021C80.351 76.9087 79.5653 76.5381 79.0771 76.8393C78.9847 78.6911 80.3015 77.5014 81.1598 77.9114C81.3442 78.233 81.2943 78.123 81.2871 78.5214L81.1534 78.6307C77.2812 78.6847 78.3083 77.6233 78.3037 74.197Z" fill="white"/>
<path d="M149.822 36.8428C150.066 37.0908 150.193 38.4976 150.433 38.8269C150.505 38.9263 150.592 39.0914 150.658 39.2035C150.138 40.117 149.408 40.8928 148.527 41.4657C148.348 41.5105 148.423 41.5133 148.224 41.4005C147.874 40.6363 147.799 39.9369 147.711 39.1081C149.087 38.0809 148.66 37.6792 149.822 36.8428Z" fill="white"/>
<path d="M155.863 21.5953C155.897 21.5962 155.932 21.5972 155.966 21.5981C155.996 21.5793 156.237 21.754 156.238 21.7557C156.629 22.609 156.82 23.3065 157.323 24.1125C156.632 24.8248 156.239 25.4132 155.701 26.2503C155.642 26.2694 155.609 26.2387 155.525 26.2091C155.13 25.4172 154.768 24.5172 154.418 23.698C154.747 22.8196 155.171 22.212 155.863 21.5953Z" fill="white"/>
<path d="M31.0652 74.1111C31.3841 74.2817 32.5891 75.8731 32.9096 76.2831C33.6969 75.4026 33.8823 75.2572 34.4639 74.2029L35.0936 74.8849C35.1138 75.8634 35.1748 77.0065 35.0615 77.9785C35.0248 78.2928 34.7978 78.3666 34.5254 78.5555L34.4172 78.4543C34.2762 77.886 34.3197 76.8226 34.3216 76.1994C34.3286 75.9865 34.3219 75.9511 34.2664 75.745L34.1315 75.7362C33.6294 76.0576 33.1736 76.8651 32.8963 77.3871C32.7326 76.9933 31.9227 75.8048 31.6363 75.4972C31.2028 75.821 31.7408 77.9438 31.317 78.6093L31.196 78.5501C30.9138 77.864 31.0154 74.9599 31.0652 74.1111Z" fill="white"/>
<path d="M48.6204 31.6403C49.1238 32.0514 50.3871 33.3852 50.9001 33.9106C50.4355 34.7511 50.102 35.2925 49.8886 36.2297C49.849 36.2864 49.8318 36.2711 49.7368 36.3024C48.953 35.7438 48.4077 34.8135 47.8555 34.0112C48.2144 33.1847 48.5215 32.5396 48.6204 31.6403Z" fill="white"/>
<path d="M47.5308 21.4937C47.9239 21.7624 49.0446 23.0127 49.354 23.393L47.8939 25.8833L47.7721 25.9096C47.2025 25.1672 46.9664 24.8384 46.3027 24.1376C46.7582 23.1173 46.9574 22.4811 47.5308 21.4937Z" fill="white"/>
<path d="M106.362 74.1572C106.63 74.459 106.802 74.613 107.11 74.8762C107.12 75.2005 107.13 75.4864 107.108 75.8133C107.084 76.1839 106.764 76.7278 106.889 77.0333C107.191 76.9321 109.087 74.6474 109.616 74.1065C109.647 75.2563 109.63 76.4675 109.631 77.6225C109.642 77.87 109.667 78.0259 109.56 78.2538C109.241 78.3597 109.372 78.3643 109.069 78.2434C108.732 77.7707 108.84 76.0352 108.801 75.3111C108.756 75.4273 108.709 75.5425 108.658 75.6565C108.436 76.1652 107.168 78.4728 106.511 78.1233C106.157 77.4502 106.313 75.0218 106.362 74.1572Z" fill="white"/>
<path d="M39.1526 74.2142C39.801 74.2011 41.3061 74.1462 41.8664 74.2774L41.9489 74.4211C41.472 75.4783 40.017 74.5998 39.4245 75.1288C39.3683 75.5154 39.3662 75.5914 39.4223 75.9761C39.887 76.2851 41.0435 75.9683 41.4874 76.2201L41.4753 76.3817C40.8496 76.9736 40.5163 76.6369 39.5021 76.7403L39.3152 77.002C39.3185 77.1192 39.33 77.2503 39.3337 77.3641C39.3649 78.317 41.5422 77.6831 41.9193 77.9589C41.9007 78.1895 41.7282 78.3319 41.5658 78.5167C41.1406 78.6719 39.5091 78.6655 39.0884 78.5049C38.4253 78.1557 39.2228 76.4502 39.1227 76.0023C38.8526 74.7942 38.635 75.3525 39.1526 74.2142Z" fill="white"/>
<path d="M44.6127 26.9507C44.8772 27.0675 45.5886 28.3507 46.4353 29.0104C46.1902 30.0651 46.0022 30.587 45.4981 31.5406L45.3275 31.5297C43.278 28.8645 43.7873 30.0451 44.6127 26.9507Z" fill="white"/>
<path d="M154.376 31.9396C154.654 32.1496 154.962 33.8466 155.102 34.3739C154.508 34.994 154.102 35.4906 153.596 36.2088C153.453 36.2488 153.33 36.2834 153.227 36.3125C152.784 35.8811 152.594 34.7096 152.441 34.0601C153.779 32.9881 153.428 33.0179 154.376 31.9396Z" fill="white"/>
<path d="M158.509 27.3652C158.994 27.7049 158.943 28.9398 159.007 29.4308C159.015 29.4901 159.235 29.4875 159.365 29.7711C158.766 30.5136 158.527 31.0736 157.802 31.6337C157.688 31.673 157.582 31.6478 157.459 31.6344C157.229 31.3293 157.013 29.8492 156.934 29.3826C157.418 28.4018 157.698 28.0913 158.509 27.3652Z" fill="white"/>
<path d="M167.599 74.0598C168.115 74.6338 167.623 76.155 167.999 77.0369L168.121 77.032C168.611 76.0713 169.578 75.0536 170.301 73.8837C170.436 75.2909 170.403 77.2287 170.315 78.6406L170.092 78.6112C169.832 78.1204 169.911 76.0108 169.912 75.3705C169.198 76.3142 168.121 77.6441 167.494 78.5746C167.371 77.612 167.234 74.8594 167.599 74.0598Z" fill="white"/>
<path d="M99.5689 74.1041C99.8136 74.1413 99.8448 74.1472 100.037 74.3016C100.24 74.8152 100.156 75.6121 100.139 76.1862C100.57 75.7231 101.77 74.6117 102.353 74.4099C102.315 74.9865 101.444 75.5406 100.944 76.1735C101.396 76.7706 101.842 77.3717 102.283 77.9769C102.483 78.2952 102.564 78.3067 102.561 78.6235L102.386 78.6361C101.564 78.4177 101.176 76.7923 100.329 76.6818C100.025 77.1087 100.308 77.9841 99.8867 78.3381L99.6684 78.3045C99.4052 77.8076 99.5212 74.8058 99.5689 74.1041Z" fill="white"/>
<path d="M126.173 74.2765C126.25 74.2657 126.327 74.2564 126.404 74.2485C127.075 74.1824 127.538 74.4945 128.048 74.919C127.938 75.2959 126.419 74.6567 125.496 75.179C125.143 75.5904 125.262 76.4671 125.279 77.0346C126.116 78.0926 126.482 77.9283 127.685 77.6293C127.826 77.5616 127.841 77.5689 128.002 77.5725L128.001 77.7555C127.626 78.3759 127.176 78.7387 126.413 78.6035C125.2 78.3885 124.319 77.3246 124.568 76.0698C124.751 75.1457 125.443 74.7555 126.173 74.2765Z" fill="white"/>
<path d="M115.237 75.8201C115.432 75.4143 116.114 74.2684 116.554 74.2037C116.515 74.6207 115.746 75.7264 115.464 76.5019C115.869 77.1655 117.08 77.9137 116.4 78.654L116.178 78.6121C115.951 78.1131 115.43 76.8922 114.815 76.8689C114.765 77.3912 113.692 78.4953 113.279 78.5256C113.289 77.5792 114.452 77.2332 114.541 76.3587C114.617 75.6053 113.261 74.9291 113.31 74.1475C114.052 74.2148 114.233 75.2281 115.237 75.8201Z" fill="white"/>
<path d="M52.5294 74.1994C53.1031 74.1894 55.4364 74.0739 55.8124 74.3245C55.8439 74.5585 55.8816 74.6553 55.7755 74.8638C55.4447 75.0283 54.8195 74.9729 54.4248 74.9679C54.3981 75.7282 54.4082 76.5545 54.4023 77.3204C54.4261 77.8038 54.5023 78.2783 53.9056 78.3757C53.4049 77.9952 53.6743 76.1855 53.6497 75.5345C53.6486 75.5046 53.8445 75.1358 53.8797 75.0693C53.454 74.7189 53.3154 75.1708 52.6717 74.9192C52.4708 74.6229 52.5383 74.6225 52.5294 74.1994Z" fill="white"/>
<path d="M44.0543 17.7795C44.0568 17.7813 45.2023 19.1509 45.3592 19.3178C45.0736 20.1426 44.6769 20.8617 44.2242 21.6062C42.1909 20.233 43.3329 19.5212 44.0543 17.7795Z" fill="white"/>
<path d="M46.8002 37.0794C47.0231 37.2363 47.8963 38.606 48.6104 39.172C48.3502 39.6264 48.0104 40.5318 47.7444 41.0844L47.6005 41.0706C45.9958 38.8205 45.7409 39.9515 46.8002 37.0794Z" fill="white"/>
<path d="M159.568 17.8347C159.737 18.0465 160.462 20.0188 160.613 20.4055C160.148 20.9467 159.766 21.3483 159.258 21.8514C159.042 21.7558 158.909 20.9417 158.778 20.6591C158.619 20.3114 158.468 19.9735 158.295 19.63C158.636 18.9649 159.093 18.4056 159.568 17.8347Z" fill="white"/>
<path d="M92.2437 78.8144C92.2301 77.4642 92.1949 76.0583 92.2534 74.7071C92.2666 74.3999 92.2644 74.3557 92.4778 74.1733L92.671 74.2197C93.0433 74.8263 92.7824 76.2665 92.9097 77.0974L93.0014 77.1476C93.377 76.853 94.5228 74.7694 95.3367 74.2183C95.323 74.51 95.3381 75.4967 95.2396 75.6631L95.093 75.629C94.5735 75.6927 92.6896 78.2754 92.2437 78.8144Z" fill="white"/>
<path d="M47.4854 74.206C47.8067 74.193 47.9459 74.1892 48.2629 74.2321C48.6491 74.418 48.9173 74.9472 49.1588 75.3267C48.6075 75.1338 48.1576 74.9713 47.6238 74.7357C46.8437 75.0096 46.627 75.1591 46.0385 75.686C46.0161 76.1266 46.0301 76.6758 46.0308 77.1256C47.0402 78.1346 47.5049 77.9633 48.8211 77.6589C49.0382 77.5654 48.958 77.5615 49.1413 77.63C48.9683 78.0525 48.0638 78.4913 47.6519 78.7204C46.6413 78.2636 46.4568 78.0781 45.6049 77.336C45.5453 76.6712 45.5752 75.8271 45.5808 75.1467C46.2055 74.719 46.7328 74.3389 47.4854 74.206Z" fill="white"/>
<path d="M156.03 37.1152C156.239 37.472 156.075 38.0318 156.116 38.4366C156.132 38.5964 156.42 38.9537 156.402 39.1008C156.346 39.5346 155.137 40.9889 154.867 41.3619C154.389 40.9676 154.404 39.7308 154.389 39.1551C154.877 38.6208 155.728 37.7283 156.03 37.1152Z" fill="white"/>
<path d="M41.4002 23.449C43.5192 24.8948 42.122 25.5063 41.8271 27.0793L41.8199 27.1188C41.5126 26.5116 40.9174 26.0739 40.3945 25.6524C40.924 25.0277 41.0709 24.2621 41.4002 23.449Z" fill="white"/>
<path d="M161.88 23.3592C162.005 23.7716 162.174 24.8969 162.343 25.5311C162.009 26.3579 161.674 26.8697 161.028 27.4732C160.775 26.6358 161.082 26.5957 160.479 25.3395C160.911 24.474 161.2 24.0445 161.88 23.3592Z" fill="white"/>
<path d="M153.614 74.2057C154.05 74.197 156.125 74.1192 156.385 74.3094C156.537 74.6222 156.52 74.4873 156.462 74.8181C156.057 75.1132 156.039 74.8217 155.454 75.0194C155.242 75.3701 155.311 76.8129 155.314 77.317C155.305 77.7931 155.364 78.0184 155.092 78.338L154.955 78.2936C154.658 77.6924 154.723 75.7224 154.717 74.9844C154.392 74.9867 154.06 75.011 153.755 74.9039C153.562 74.6297 153.627 74.6043 153.614 74.2057Z" fill="white"/>
<path d="M42.7802 32.7178C43.434 33.3673 43.6526 33.5603 44.1377 34.3492L44.1409 34.4504C44.1631 35.1691 44.303 35.8343 43.8296 36.3372C43.0693 36.1348 42.7339 35.2135 42.3633 34.547C42.5797 33.8207 42.6746 33.4641 42.7802 32.7178Z" fill="white"/>
<path d="M37.5324 16.7571C38.0398 17.3868 36.8341 19.4898 36.8043 20.5603L36.8035 20.6004L36.6902 20.6467L36.3587 20.1402L36.3145 20.0918C34.9794 18.6223 36.4303 17.7476 37.5324 16.7571Z" fill="white"/>
<path d="M39.4656 28.3882C39.8158 28.538 40.9923 30.2425 40.9224 30.3598C40.4812 31.1007 40.4421 31.0724 40.4675 31.9465L40.3439 32.0178C38.7266 30.3388 39.2221 30.6466 39.4656 28.3882Z" fill="white"/>
<path d="M159.624 33.2318C160.537 33.7446 159.918 35.0817 159.615 35.7911C159.371 35.9903 158.975 36.2305 158.702 36.408C158.721 34.7572 157.837 34.5334 159.624 33.2318Z" fill="white"/>
<path d="M160.15 73.9221C160.392 74.2352 160.622 74.5068 160.878 74.8046C160.889 75.2354 160.73 77.092 160.757 77.1669L161.217 77.3133L161.263 77.4101C161.17 77.7386 160.451 78.5795 160.197 78.8931C160.08 77.2386 160.064 75.5785 160.15 73.9221Z" fill="white"/>
<path d="M163.41 74.1829L163.412 78.7144C163.192 78.557 162.762 78.3011 162.679 78.0758C162.794 77.8689 162.88 77.8177 163.06 77.6756C163.161 77.1895 163.163 76.2288 163.056 75.7428L162.895 75.5744C162.251 75.6665 161.949 76.8115 161.264 77.4101L161.217 77.3133C161.214 77.1922 161.21 77.0405 161.205 76.8582C161.619 76.2017 162.072 75.461 162.603 74.8991C162.85 74.6379 163.16 74.3871 163.41 74.1829Z" fill="white"/>
<path d="M160.321 37.376L160.512 37.5512C160.62 37.9951 160.569 38.5634 160.552 39.0295C160.133 39.7272 159.812 40.3305 159.205 40.8733C159.098 40.8065 159.091 40.7655 159.018 40.6548C158.836 39.2686 159.466 38.5612 160.321 37.376Z" fill="white"/>
<path d="M41.6326 37.4905C41.8365 37.6526 41.8314 37.84 41.9536 37.9822C42.2719 38.3526 42.6683 38.7417 43.0097 39.0869C43.0411 39.6772 43.0047 40.3013 42.9812 40.8946C41.3647 40.4254 41.6123 38.8357 41.6326 37.4905Z" fill="white"/>
<path d="M38.7433 20.3873C38.9979 20.4594 39.2328 20.6982 39.4038 20.8863C39.9707 21.5098 39.0792 22.3546 39.0455 23.3677L39.0445 23.4037C38.5776 23.26 38.2342 22.5287 38.0117 22.1126C38.3036 21.5033 38.2538 20.9109 38.7433 20.3873Z" fill="white"/>
<path d="M162.872 28.7068L163.055 28.8624C163.367 30.5439 162.742 31.0705 162.06 32.5327C161.852 30.6427 161.631 30.2333 162.872 28.7068Z" fill="white"/>
<path d="M164.889 16.7181C166.225 17.5245 166.115 19.0873 165.557 20.3323L165.514 20.4034L165.356 20.4136C165.091 19.9454 164.824 17.3153 164.889 16.7181Z" fill="white"/>
<path d="M163.857 20.3022C165.061 21.0303 164.467 22.4166 164.068 23.4677C162.888 22.9131 163.638 21.1798 163.857 20.3022Z" fill="white"/>
<path d="M37.4944 25.1467C37.9313 25.535 38.1891 27.5176 37.5258 28.0179C37.2595 27.3637 36.7901 26.6245 36.8857 25.9362L36.8932 25.8856C36.944 25.5308 37.2097 25.3718 37.4944 25.1467Z" fill="white"/>
<path d="M85.6055 74.1922C86.3712 74.1928 87.335 74.2201 88.0854 74.1922C88.0684 74.4666 88.0657 74.8123 87.9695 75.0621L87.8468 74.9964C87.2335 74.9486 86.4952 74.9829 85.87 74.9965C85.6771 74.8339 85.6509 74.4542 85.6055 74.1922Z" fill="white"/>
<path d="M149.744 74.1414C150.065 74.3334 150.034 78.3105 149.88 78.5927L149.731 78.45L149.224 78.1871L149.188 78.0391C149.282 77.9698 149.625 77.6788 149.636 77.6028C149.776 76.6038 149.542 75.1166 149.744 74.1414Z" fill="white"/>
<path d="M38.7305 33.8524C38.9831 33.8585 39.0131 33.8679 39.2409 33.9776C39.8657 34.7146 39.8176 35.4913 39.7932 36.4233C39.2036 36.1963 38.8664 34.4311 38.7305 33.8524Z" fill="white"/>
<path d="M88.0833 74.1922C88.1517 74.9052 88.2174 78.0354 88.0374 78.6146L87.9239 78.6416C87.7232 78.3393 87.7472 75.4198 87.8447 74.9964L87.9674 75.0621C88.0636 74.8123 88.0663 74.4666 88.0833 74.1922Z" fill="white"/>
<path d="M95.3373 74.2183C95.4723 74.8902 95.4748 77.8411 95.334 78.5523L95.227 78.6456C94.974 78.2907 95.0378 76.1344 95.0936 75.6291L95.2402 75.6631C95.3387 75.4967 95.3236 74.5101 95.3373 74.2183Z" fill="white"/>
<path d="M85.6652 76.8769C85.7682 77.2255 85.7816 77.3628 85.815 77.7272C85.6839 77.8891 85.3482 78.4799 85.2237 78.6875C84.9995 78.5372 84.864 78.4272 84.6574 78.2539C84.6114 77.8188 85.0865 77.8023 85.3306 77.4999C85.4353 77.3702 85.5927 77.0345 85.6652 76.8769Z" fill="white"/>
<path d="M169.473 73.0787L169.553 73.1937C169.649 73.8148 169.494 74.0139 168.904 74.1684C168.576 74.1485 168.485 74.0544 168.216 73.8554C168.175 73.5334 168.127 73.5507 168.239 73.2912C168.476 73.3546 168.708 73.4599 168.937 73.5547C169.26 73.4971 169.21 73.4305 169.473 73.0787Z" fill="white"/>
<path d="M85.6658 76.8769C85.5326 76.4499 85.5958 74.7254 85.6055 74.1922C85.6509 74.4542 85.6772 74.8339 85.87 74.9965C85.9241 75.555 85.9606 77.2084 85.8155 77.7273C85.7822 77.3628 85.7687 77.2255 85.6658 76.8769Z" fill="white"/>
<path d="M164.704 25.4171C164.937 25.754 164.54 27.1862 164.448 27.7202C163.864 27.2975 164.421 25.903 164.704 25.4171Z" fill="white"/>
<path d="M162.439 34.1732L162.569 34.3216C162.561 34.7497 162.293 35.6421 162.171 36.0957C161.696 35.7624 162.202 34.5711 162.439 34.1732Z" fill="white"/>
</svg>
