<svg width="42" height="42" viewBox="0 0 42 42" fill="none" xmlns="http://www.w3.org/2000/svg">
<ellipse cx="20.6743" cy="20.6745" rx="20.1177" ry="20.1175" stroke="white" stroke-width="1.11409"/>
<path d="M21.1406 10.057C27.1418 10.0571 31.8545 14.9242 31.8545 20.9398V20.9408C31.8642 23.7787 30.7469 26.5045 28.749 28.5199C26.7511 30.5353 24.0351 31.6747 21.1973 31.6898C20.102 31.6897 19.3428 31.61 18.6494 31.3881C17.956 31.1662 17.2935 30.792 16.4092 30.1527L16.0176 29.8705L15.7217 30.2513C15.2411 30.8693 14.1678 31.4761 13.1826 31.684C12.6921 31.7874 12.2994 31.7743 12.0488 31.6781C11.9315 31.633 11.8547 31.5737 11.8037 31.5062C11.7542 31.4407 11.7087 31.3412 11.6943 31.182C11.69 29.6452 11.3477 28.3477 10.9805 26.9974C10.5412 25.3271 10.0566 23.5136 10.0566 20.8793C10.0568 14.7139 15.1148 10.057 21.1406 10.057ZM21.3184 14.6429C17.9656 14.4701 15.389 16.811 14.8271 20.3441C14.5988 21.786 14.688 23.3684 14.917 24.6136C15.0315 25.2363 15.1852 25.7938 15.3613 26.2181C15.4489 26.429 15.5494 26.6249 15.665 26.7826C15.7703 26.926 15.9402 27.1112 16.1895 27.1771L16.2002 27.1791C16.4529 27.2401 16.6963 27.1483 16.8379 27.0844C17.0055 27.0086 17.1798 26.9002 17.3428 26.7845C17.5589 26.6311 17.7806 26.4457 17.9824 26.2631C18.7925 26.7469 19.7043 27.0399 20.6484 27.1156H20.6562L20.665 27.1166C22.3195 27.1961 23.9391 26.6228 25.1758 25.5209C26.4125 24.4189 27.1682 22.8757 27.2793 21.223V21.2094C27.344 19.5531 26.7559 17.9374 25.6416 16.7103C24.6339 15.6009 23.2686 14.8908 21.793 14.6947V14.6674L21.3184 14.6429Z" stroke="white"/>
</svg>
