<svg width="820" height="260" viewBox="0 0 820 260" fill="none" xmlns="http://www.w3.org/2000/svg">
<mask id="path-1-inside-1_391_461" fill="white">
<path d="M409.256 0.101295C418.59 -0.079044 428.085 0.00612056 437.419 0.164232C442.719 0.254125 445.495 1.48199 451.009 0.853475C452.127 2.37613 449.867 5.78654 448.835 7.49114C446.385 11.552 446.311 15.8204 445.703 20.6092C442.326 23.8666 437.222 27.355 433.525 30.663C428.072 35.5435 423.337 40.5788 418.277 45.8625L413.671 50.4744C405.018 42.2631 388.824 26.9315 381.635 17.2067C380.038 15.047 378.961 5.57022 378.51 2.25339C389.445 2.15594 398.534 0.531235 409.256 0.101295Z"/>
<path d="M460.255 2.16302C469.682 1.95959 481.153 1.88671 490.494 2.51105C501.892 3.27342 516.821 6.52394 527.899 7.09873C527.23 13.324 527.052 17.8876 526.929 24.1456C523.834 28.2721 516.802 33.3413 512.553 36.6487C507.978 40.4662 501.64 47.0359 497.145 51.3701C486.103 41.0336 470.793 25.3822 460.445 14.4694C460.132 10.5352 460.243 6.14484 460.255 2.16302Z"/>
<path d="M359.592 2.46369C363.312 2.00931 367.771 2.13187 371.576 2.13248L371.467 12.6037C360.224 25.79 343.733 38.5697 331.278 53.4904C329.143 50.8378 325.6 47.276 323.189 44.7086C313.99 35.2699 300.925 27.4214 302.391 13.1938C302.5 12.1318 301.106 11.006 301.026 9.31847C306.448 7.57961 324.515 6.24172 330.736 5.88392C341.831 5.24595 348.793 4.04934 359.592 2.46369Z"/>
<path d="M413.363 73.3978C416.335 75.1649 441.901 101.367 445.162 105.169C439.592 112.521 422.593 128.296 414.978 136.425L413.934 137.116C409.93 135.928 387.85 110.01 383.972 105.218C393.638 95.6015 402.665 84.1186 413.363 73.3978Z"/>
<path d="M455.266 31.467C460.51 32.4777 480.985 57.9912 485.879 63.208C475.912 71.4236 468.844 83.5279 456.715 93.9479L455.825 94.1419C451.747 92.9016 429.915 67.0548 425.825 61.9253C429.467 56.8577 449.708 36.8657 455.266 31.467Z"/>
<path d="M455.751 118.148C460.123 119.631 481.918 146.054 486.302 150.013C477.969 157.219 462.696 172.664 455.462 180.881L454.885 181.305C453.177 180.829 443.057 167.165 440.797 164.763C435.921 159.574 430.345 154.461 425.549 149.259C432.721 139.666 446.95 126.86 455.751 118.148Z"/>
<path d="M373.497 118.751C377.778 120.312 386.673 133.299 390.462 137.149C394.109 140.856 398.433 145.299 402.037 149.052C393.864 160.575 382.275 171.32 372.063 181.273C370.956 180.101 370.26 179.103 369.325 177.82C361.998 167.763 352.85 158.268 343.259 150.35C350.656 141.417 364.404 125.573 373.497 118.751Z"/>
<path d="M537.727 7.49605C539.827 8.05132 542.081 8.48003 544.242 8.66951C562.954 10.3106 581.206 14.3744 599.77 16.9985C603.197 17.4824 608.668 18.0131 611.635 19.5678C611.794 21.9006 598.216 36.8597 595.533 40.1843C588.839 47.6401 583.809 50.9882 575.801 57.0272C568.886 50.2551 563.046 43.6386 556.967 36.3955C550.518 28.7144 543.499 23.6518 540.637 13.5813C540.201 12.0409 538.556 9.07532 537.727 7.49605Z"/>
<path d="M371.811 32.0046C374.134 33.4071 383.167 42.8434 385.44 45.1572C391.359 51.2756 397.445 57.2243 403.703 62.9967C394.571 71.757 382.537 84.6067 373.742 92.446C373.276 92.8131 372.587 92.8678 371.948 93.0096C368.808 91.4138 347.467 69.008 342.539 64.2794C354.028 51.9375 362.234 46.5575 371.811 32.0046Z"/>
<path d="M497.172 75.8102C502.975 82.6891 509.608 88.8078 515.688 95.4712C519.446 99.5938 521.558 103.561 525.188 107.609C520.607 113.769 503.043 135.97 496.423 137.835C495.41 137.135 493.819 136.023 493.168 135.029C486.241 124.448 476.612 114.912 467.001 106.667C478.055 95.9029 486.953 87.3808 497.172 75.8102Z"/>
<path d="M414.623 161.783C418.971 163.696 438.923 186.925 442.915 192.769C436.018 200.519 421.397 214.437 413.517 222.477C404.343 212.06 393.35 202.685 384.159 192.469C388.194 187.26 409.133 166.969 414.623 161.783Z"/>
<path d="M331.079 77.6154C331.024 77.5982 357.813 104.54 359.753 106.594C354.898 111.141 350.827 116.976 346.34 121.815C341.345 127.202 336.746 131.59 332.077 137.31C331.732 137.499 331.311 137.411 330.852 137.404C322.312 129.676 312.427 116.798 304.12 107.704C313.117 98.0354 322.048 86.6741 331.079 77.6154Z"/>
<path d="M284.016 11.0931C285.509 10.9614 286.556 10.6889 287.782 11.5685C288.918 13.8674 291.561 18.5123 289.481 20.8575C281.546 29.8014 272.248 37.5896 264.427 46.6755C261.167 50.4633 258.243 54.3433 254.853 58.0538C249.898 54.0351 245.951 50.0918 241.401 45.6311C232.332 36.8108 228.646 32.1705 222.443 21.3512C230.659 20.8499 238.639 18.0694 246.369 17.0042C258.685 15.3073 271.876 12.5906 284.016 11.0931Z"/>
<path d="M496.678 164.831C502.027 165.006 520.727 189.103 522.833 195.13C515.617 203.244 503.507 214.694 495.61 222.651C488.13 213.459 476.99 200.823 468.951 192.513C471.622 189.06 492.987 167.769 496.678 164.831Z"/>
<path d="M535.797 38.3057C541.87 41.3668 558.107 62.4816 564.347 68.7508C557.493 75.9441 545.85 88.531 538.64 94.5816C533.678 91.8971 513.677 70.5536 510.434 63.897C514.751 58.3253 529.883 44.373 535.797 38.3057Z"/>
<path d="M537.143 121.71C543.259 126.26 558.808 146.034 563.248 152.788C557.795 157.278 553.208 163.723 548.553 169.134C544.776 173.527 541.233 177.135 537.13 181.25C529.988 173.501 523.792 164.938 516.116 157.647C514.071 155.701 512.013 153.32 510.122 151.212C517.497 141.549 532.132 132.326 537.143 121.71Z"/>
<path d="M455.232 205.986C456.356 206.029 457.94 206.844 458.64 207.679C466.335 216.797 473.698 225.126 482.154 233.613C476.879 239.439 470.327 245.539 464.523 250.88C460.624 254.467 458.394 255.043 454.894 259.295C452.051 255.942 445.252 250.575 441.592 247.447C435.93 242.614 432.381 239.145 427.425 233.585C432.338 228.018 449.84 210.741 455.232 205.986Z"/>
<path d="M331.159 164.295C339.548 174.244 349.113 182.952 358.413 192.06C348.845 204.756 343.969 209.017 333.074 220.424C331.158 221.22 309.269 195.643 306.53 192.382C314.122 183.237 323.618 173.507 331.159 164.295Z"/>
<path d="M372.007 206.532C373.496 206.825 398.41 232.139 401.966 235.059C389.032 243.605 385.029 248.23 374.508 259.036L373.769 259.304C373.911 259.349 347.944 236.842 345.509 234.739C350.724 231.068 363.725 213.746 372.007 206.532Z"/>
<path d="M613.876 20.5085C621.774 22.295 630.193 23.395 638.232 25.275C651.552 28.3878 665.167 32.3639 678.567 34.9075C673.82 39.3257 672.634 44.2672 670.411 50.2742C668.52 51.008 666.893 51.7245 665.044 52.5707C659.824 55.6537 652.203 63.415 647.487 67.928C639.423 53.8233 626.22 44.7607 619.121 30.3397C617.383 26.8211 615.915 23.8901 613.876 20.5085Z"/>
<path d="M291.945 123.613C292.62 123.718 316.151 147.518 318.607 150.011C315.15 152.964 311.228 158.667 308.025 162.246C303.387 167.429 298.641 172.415 293.853 177.455C293.526 178.07 293.016 178.236 292.386 178.572C287.379 175.452 274.782 158.584 268.889 152.903C276.225 140.964 282.598 134.101 291.945 123.613Z"/>
<path d="M577.582 83.9037C578.589 85.1489 578.89 86.2437 579.701 87.3324C586.223 96.0448 594.446 103.338 599.408 113.204C595.14 119.42 582.747 135.267 576.299 139.043L575.82 138.171C574.542 136.372 573.198 134.697 571.656 133.12C564.434 125.737 557.962 117.782 551.041 110.13C556.647 103.364 570.803 90.3645 577.582 83.9037Z"/>
<path d="M292.545 40.0043C301.643 47.7437 309.965 57.7241 318.843 65.4239C314.304 68.8594 308.681 76.4144 304.765 80.9649C300.855 85.5093 297.617 88.8385 293.329 93.0913C288.339 96.4524 273.404 74.5833 268.955 70.1237C271.322 67.3636 273.685 63.4327 276.288 60.4018C282.619 53.0299 287.778 48.5194 292.545 40.0043Z"/>
<path d="M254.228 86.1479C257.583 87.6001 274.718 106.394 277.629 110.461C270.974 117.63 259.141 130.141 255.051 138.806C248.331 133.576 240.556 121.604 231.384 113.447C238.556 106.842 247.923 94.1659 254.228 86.1479Z"/>
<path d="M211.536 23.1979C212.485 23.2666 212.133 23.1558 212.946 24.0114C210.346 32.2576 216.85 32.3212 208.124 40.6429C199.868 48.5164 192.598 58.332 184.388 66.5741C181.286 62.9022 179.111 60.7685 175.588 57.4663C163.125 45.652 164.411 54.0535 165.411 34.2715C170.318 32.4704 181.891 30.3261 187.293 29.1715C195.417 27.3558 203.499 25.3642 211.536 23.1979Z"/>
<path d="M534.883 208.419C540.686 212.165 551.537 228.427 557.648 233.605C549.965 241.631 542.08 249.462 534.005 257.092C527.01 250.845 516.073 240.592 510.177 233.664C517.031 224.971 527.421 217.086 534.883 208.419Z"/>
<path d="M574.518 169.026C578.381 170.408 591.4 190.929 594.427 195.526C587.672 200.245 579.026 212.839 571.404 219.995C565.048 212.579 557.605 202.602 551.084 194.673C556.095 188.989 562.217 184.033 566.885 177.961C569.286 174.835 571.748 171.839 574.518 169.026Z"/>
<path d="M612.838 130.454C617.198 133.788 628.651 151.863 632.643 157.297C622.762 165.205 619.403 172.195 610.805 181.117C608.453 179.702 595.447 160.858 589.803 155.702C595.066 146.171 605.751 138.769 612.838 130.454Z"/>
<path d="M611.529 52.4871C615.201 53.1748 632.071 74.756 634.84 78.6403C628.755 85.2865 620.384 93.2356 613.875 99.8192C613.371 100.41 613.586 100.151 612.64 100.439C611.682 96.3929 596.348 80.9465 591.675 72.0321C596.968 66.1129 605.375 57.2495 611.529 52.4871Z"/>
<path d="M294.119 208.317C295.017 208.661 297.765 213.363 299.158 214.907C305.127 221.52 312.163 229.063 318.874 234.825C311.96 241.248 305.009 248.308 298.266 254.958C297.77 255.477 297.426 255.502 296.712 255.779C293.538 253.798 277.144 237.162 274.055 233.729C281.974 224.507 287.413 218.484 294.119 208.317Z"/>
<path d="M255.141 169.003C261.716 174.213 274.445 187.644 277.172 195.523C271.31 203.023 265.281 210.39 259.089 217.62C255.906 217.116 242.413 199.593 237.107 194.699C238.701 191.755 252.363 172.739 255.141 169.003Z"/>
<path d="M684.35 37.0031C694.618 39.942 705.193 43.398 715.411 46.5675C722.161 48.6607 729.229 52.3754 736.187 53.7244C733.313 58.539 728.418 63.1853 724.39 67.1537C719.686 71.8565 715.866 75.6506 710.775 79.9285C706.63 76.1037 704.149 71.1774 700.642 67.0733C692.622 57.6971 689.545 48.067 684.35 37.0031Z"/>
<path d="M218.24 130.264C220.123 131.68 237.065 151.779 239.123 154.594C234.967 161.41 226.342 170.922 221.236 178.013L220.358 178.048C212.861 170.888 207.07 164.814 201.756 155.807C204.467 149.842 214.021 137.647 218.24 130.264Z"/>
<path d="M147.663 39.1392C148.622 39.2641 148.316 39.2147 149.161 40.0015C149.35 41.599 149.355 44.2084 148.653 45.5961C142.551 57.6554 130.547 66.6263 124.54 78.9141C121.868 76.8485 116.379 71.2757 113.722 68.7287C108.047 63.3867 104.515 59.7879 99.5698 53.8669C103.748 52.8746 113.868 48.9891 118.411 47.4835C128.06 44.3585 137.817 41.5753 147.663 39.1392Z"/>
<path d="M219.577 54.1745C223.795 56.3997 234.937 69.0554 238.888 73.332C233.654 81.3954 224.885 92.8949 217.729 99.1045L217.099 99.1198C215.875 98.0754 213.553 94.4287 212.197 92.796C208.191 88.006 204.005 83.3695 199.649 78.8957C205.868 72.9016 212.328 61.116 219.577 54.1745Z"/>
<path d="M647.08 95.3847C649.389 97.2992 662.973 118.027 665.202 121.422C657.452 129.481 657.71 133.642 646.011 142.289C645.428 141.947 629.301 119.436 627.907 117.56C636.277 110.137 640.392 104.116 647.08 95.3847Z"/>
<path d="M605.577 213.918C605.688 213.926 605.799 213.918 605.909 213.941C608.372 214.47 618.977 231.809 621.256 234.881C614.55 240.943 607.715 247.846 601.076 254.134L600.794 254.377L599.737 254.29C594.812 247.157 589.39 241.687 586.018 233.694C589.543 228.933 601.033 217.566 605.577 213.918Z"/>
<path d="M223.031 213.163C225.101 213.768 242.049 231.724 243.965 234.447C241.63 238.817 232.564 249.198 228.886 253.567L227.671 253.743C221.292 247.375 214.852 241.07 208.35 234.827C213.306 228.071 218.343 220.188 223.031 213.163Z"/>
<path d="M183.698 98.3092C189.258 102.703 198.328 112.583 204.14 117.982C196.516 125.179 193.157 130.347 187.113 138.845L185.823 139.906C183.39 139.469 171.3 123.775 168.408 120.469C174.3 111.52 178.329 109.761 183.698 98.3092Z"/>
<path d="M677.664 138.938C679.328 140.039 689.479 159.414 691.782 162.884C687.71 168.804 679.365 175.679 673.555 183.809C671.78 182.262 661.543 163.575 659.541 160.174C665.793 152.354 672.646 148.196 677.664 138.938Z"/>
<path d="M186.783 175.291C194.218 180.494 201.305 190.062 206.771 197.136C201.998 203.436 197.313 209.803 192.719 216.236L191.768 216.627C187.679 216.257 180.682 202.758 176.545 200.28C175.943 199.919 174.074 198.274 173.353 197.715C178.077 191.607 184.6 182.602 186.783 175.291Z"/>
<path d="M642.63 176.447C646.376 178.864 653.371 192.946 655.864 197.488C650.245 205.1 644.614 211.069 638.08 217.872C636.692 216.574 626.841 201.163 625.147 198.557C628.917 187.259 634.862 185.161 642.63 176.447Z"/>
<path d="M679.864 67.2231C681.061 67.9384 693.675 87.7014 696.359 91.0055C690.377 95.9078 684.979 100.882 681.061 107.598C677.432 106.494 666.237 88.7637 664.1 84.3605C668.042 79.1468 675.184 72.8555 679.864 67.2231Z"/>
<path d="M154.693 139.489C156.929 140.445 168.131 155.716 171.348 159.206C167.967 165.143 162.319 175.579 158.119 180.573L157.347 180.911C153.881 179.482 144.492 165.951 141.777 162.202C144.37 155.911 151.12 146.684 154.693 139.489Z"/>
<path d="M89.7123 56.98L91.04 57.1623C93.1919 63.1632 76.5464 85.9508 72.8691 92.0714L65.2462 84.716C59.7812 79.1505 57.9911 76.7085 54.288 69.8444C64.8053 67.6112 77.5173 60.0746 89.7123 56.98Z"/>
<path d="M154.508 68.3118C158.458 71.3936 166.729 80.7077 169.628 84.5405C165.024 92.2434 158.897 98.0944 154.198 106.702L137.88 90.7139C143.977 84.8192 148.44 75.1072 154.508 68.3118Z"/>
<path d="M742.2 56.6877C751.418 59.8904 760.365 63.1036 769.128 67.4178C772.15 68.9074 775.534 70.5493 778.758 71.4894C775.927 76.4851 774.011 78.8718 770.252 83.2007C767.077 86.5618 763.859 89.6755 760.555 92.8899C754.998 84.9739 743.453 65.833 742.2 56.6877Z"/>
<path d="M708.983 109.547C709.474 110.002 720.473 128.928 721.75 131.041C716.334 138.527 713.282 138.456 706.901 149.3C703.284 141.378 698.083 134.912 693.962 125.35C698.304 120.251 704.15 115.08 708.983 109.547Z"/>
<path d="M668.108 217.695C670.43 219.392 675.428 231.134 678.18 235.144C671.13 240.737 665.707 249.869 661.55 253.037C657.582 246.729 653.118 242.381 649.98 235.028L668.108 217.695Z"/>
<path d="M124.343 109.355C128.225 111.554 135.362 122.449 137.931 126.597C134.419 134.05 130.242 140.171 125.525 146.863C123.88 145.443 123.606 143.556 121.761 141.426C118.633 137.816 115.433 134.729 112.023 131.409C115.231 124.834 120.56 116.665 124.343 109.355Z"/>
<path d="M161.842 216.683C166.105 218.175 174.87 231.088 179.526 235.439C176.193 239.605 172.293 246.446 169.425 251.143C168.986 251.564 169.069 251.404 168.332 251.595C163.816 247.186 156.39 240.374 152.903 235.545L161.842 216.683Z"/>
<path d="M701.571 182.598C701.995 182.976 707.307 196.947 709.444 200.209C703.991 205.225 701.583 215.439 693.858 216.902C691.058 213.219 688.632 205.043 685.359 200.35C691.236 194.405 695.743 186.213 701.571 182.598Z"/>
<path d="M128.747 183.585C133.138 185.446 141.381 195.11 144.847 198.918C141.917 204.75 138.878 210.527 135.731 216.245C135.257 216.613 135.273 216.477 134.526 216.597C121.037 201.078 117.311 202.334 128.747 183.585Z"/>
<path d="M731.925 151.279C733.798 152.402 738.643 164.824 741.057 168.922C736.316 174.043 730.058 180.477 726.085 185.99C725.342 185.291 717.856 168.291 716.934 166.16C721.522 161.308 727.116 156.006 731.925 151.279Z"/>
<path d="M99.238 148.735C100.147 149.364 106.081 157.327 107.523 158.901C110.253 161.88 111.528 163.023 114.773 165.738C111.793 171.093 108.198 176.607 104.93 181.827C103.897 183.144 104.427 182.833 102.977 183.169C99.2761 180.397 93.9051 171.093 91.3203 166.884C93.4316 161.89 98.2824 153.501 99.238 148.735Z"/>
<path d="M735.992 84.9905C740.186 90.545 744.368 97.7929 747.691 103.918C742.035 108.604 739.781 111.202 735.556 117.197C732.915 116.313 726.307 100.597 724.14 96.8768C728.07 93.1706 732.596 89.1266 735.992 84.9905Z"/>
<path d="M44.0336 75.9127L45.2778 76.2087C47.1146 80.9956 35.2162 99.3875 32.3532 104.084C29.7721 101.864 29.0984 100.944 27.0817 98.2558C24.8525 94.5527 20.9504 90.7537 17.7172 87.9193C27.2181 84.2334 34.9478 79.5115 44.0336 75.9127Z"/>
<path d="M97.7094 85.389C101.156 89.0633 106.207 93.378 110.03 96.827C106.802 100.719 102.677 108.446 98.8007 113.569C98.3401 114.066 98.1761 114.01 97.4736 114.236C94.0186 111.255 90.4807 107.529 87.237 104.259C90.4199 93.8103 93.4715 93.6691 97.7094 85.389Z"/>
<path d="M786.497 75.524C791.152 76.8608 804.527 85.7285 809.44 88.849L802.347 98.5616C800.548 101.303 798.411 104.228 796.52 106.942C794.935 98.4394 791.766 95.4946 788.8 87.8444C787.24 83.8379 789.113 80.2526 786.497 75.524Z"/>
<path d="M111.038 219.976C116.675 224.863 119.176 227.263 123.794 233.139C123.028 237.631 121.741 246.114 118.82 249.305C113.224 245.245 109.544 241.411 105.043 236.349C106.538 230.373 108.625 225.565 111.038 219.976Z"/>
<path d="M718.409 220.224C719.944 221.786 720.743 230.648 722.253 232.722C722.708 233.349 723.255 234.389 723.672 235.095C720.399 240.85 715.799 245.737 710.248 249.345C709.118 249.628 709.591 249.645 708.338 248.934C706.133 244.12 705.66 239.715 705.107 234.494C713.779 228.023 711.089 225.493 718.409 220.224Z"/>
<path d="M756.467 124.173C756.682 124.179 756.903 124.185 757.118 124.19C757.308 124.072 758.831 125.183 758.831 125.183C761.294 130.558 762.497 134.952 765.666 140.03C761.312 144.517 758.837 148.223 755.447 153.497C755.079 153.617 754.87 153.423 754.342 153.237C751.849 148.248 749.57 142.579 747.366 137.419C749.441 131.885 752.107 128.058 756.467 124.173Z"/>
<path d="M80.895 187.451C84.0657 190.04 92.0239 198.443 95.2554 201.752C92.3291 207.047 90.2283 210.458 88.884 216.362C88.634 216.718 88.526 216.622 87.9272 216.819C82.9898 213.301 79.5551 207.44 76.0761 202.386C78.3373 197.179 80.2717 193.116 80.895 187.451Z"/>
<path d="M74.0292 123.533C76.5059 125.226 83.5657 133.102 85.5142 135.498L76.3167 151.185L75.5497 151.351C71.9615 146.674 70.4741 144.603 66.2932 140.188C69.1624 133.761 70.417 129.753 74.0292 123.533Z"/>
<path d="M55.6513 157.91C57.318 158.645 61.7992 166.729 67.1327 170.884C65.5889 177.528 64.4049 180.816 61.2293 186.823L60.1546 186.755C47.2436 169.965 50.4523 177.402 55.6513 157.91Z"/>
<path d="M747.1 189.337C748.856 190.659 750.797 201.349 751.675 204.671C747.935 208.577 745.374 211.705 742.187 216.23C741.29 216.482 740.517 216.7 739.866 216.883C737.072 214.166 735.88 206.786 734.916 202.694C743.342 195.941 741.131 196.129 747.1 189.337Z"/>
<path d="M773.134 160.52C776.192 162.66 775.866 170.439 776.272 173.532C776.321 173.906 777.709 173.89 778.526 175.676C774.755 180.353 773.25 183.881 768.681 187.409C767.963 187.657 767.293 187.498 766.52 187.414C765.07 185.492 763.707 176.168 763.21 173.229C766.262 167.05 768.024 165.094 773.134 160.52Z"/>
<path d="M52.1337 100.136C52.1497 100.147 59.3654 108.775 60.3541 109.826C58.5548 115.022 56.056 119.552 53.2041 124.242C40.3956 115.592 47.5893 111.107 52.1337 100.136Z"/>
<path d="M69.4329 221.714C70.8373 222.703 76.3379 231.331 80.8363 234.896C79.1972 237.758 77.0564 243.462 75.3811 246.943L74.4747 246.856C64.3659 232.682 62.76 239.807 69.4329 221.714Z"/>
<path d="M779.802 100.484C780.865 101.818 785.434 114.242 786.386 116.678C783.456 120.087 781.049 122.617 777.85 125.786C776.486 125.184 775.651 120.056 774.828 118.276C773.821 116.085 772.875 113.956 771.782 111.793C773.932 107.603 776.812 104.08 779.802 100.484Z"/>
<path d="M757.524 221.94C758.839 224.187 757.807 227.714 758.065 230.264C758.163 231.271 759.981 233.521 759.864 234.448C759.514 237.181 751.899 246.342 750.198 248.692C747.183 246.208 747.281 238.417 747.183 234.79C750.259 231.424 755.621 225.802 757.524 221.94Z"/>
<path d="M35.4085 135.85C48.7568 144.958 39.9554 148.81 38.0977 158.719L38.0523 158.968C36.1166 155.143 32.3674 152.386 29.0734 149.73C32.4086 145.795 33.3341 140.972 35.4085 135.85Z"/>
<path d="M794.37 135.285C795.156 137.883 796.218 144.971 797.287 148.966C795.181 154.175 793.068 157.399 789.003 161.201C787.406 155.926 789.34 155.673 785.539 147.76C788.266 142.307 790.084 139.602 794.37 135.285Z"/>
<path d="M44.1096 194.238C48.2278 198.33 49.6053 199.546 52.6611 204.515L52.6814 205.153C52.8208 209.68 53.702 213.871 50.7199 217.039C45.9304 215.764 43.8179 209.96 41.4831 205.762C42.8464 201.186 43.4439 198.94 44.1096 194.238Z"/>
<path d="M11.0438 93.6955C14.2397 97.6621 6.64496 110.91 6.45704 117.654L6.45213 117.906L5.73792 118.198L3.64995 115.007L3.37176 114.702C-5.03909 105.445 4.10072 99.9346 11.0438 93.6955Z"/>
<path d="M23.2265 166.965C25.4324 167.908 32.8434 178.646 32.4031 179.384C29.6236 184.052 29.3774 183.874 29.5377 189.38L28.759 189.829C18.5709 179.252 21.6924 181.192 23.2265 166.965Z"/>
<path d="M780.152 197.476C785.9 200.706 782.001 209.13 780.091 213.598C778.555 214.854 776.062 216.367 774.343 217.485C774.459 207.086 768.896 205.676 780.152 197.476Z"/>
<path d="M784.55 223.583L785.754 224.687C786.435 227.483 786.11 231.063 786.005 233.999C783.365 238.394 781.344 242.194 777.518 245.614C776.843 245.193 776.8 244.935 776.339 244.237C775.197 235.505 779.164 231.049 784.55 223.583Z"/>
<path d="M36.8771 224.304C38.1618 225.325 38.1293 226.505 38.8994 227.401C40.9045 229.734 43.4014 232.186 45.552 234.36C45.7498 238.079 45.5207 242.01 45.3727 245.748C35.1896 242.792 36.7494 232.778 36.8771 224.304Z"/>
<path d="M18.6697 116.564C20.2738 117.017 21.7538 118.522 22.8309 119.707C26.402 123.635 20.786 128.957 20.5735 135.338L20.5673 135.565C17.6264 134.66 15.4629 130.053 14.0615 127.432C15.9001 123.594 15.5863 119.862 18.6697 116.564Z"/>
<path d="M800.615 168.972L801.769 169.952C803.734 180.544 799.792 183.861 795.499 193.072C794.191 181.166 792.797 178.587 800.615 168.972Z"/>
<path d="M813.32 93.4493C821.74 98.5291 821.046 108.374 817.527 116.217L817.257 116.665L816.262 116.729C814.591 113.78 812.909 97.2114 813.32 93.4493Z"/>
<path d="M806.823 116.028C814.407 120.614 810.667 129.347 808.149 135.968C800.719 132.474 805.441 121.556 806.823 116.028Z"/>
<path d="M10.8056 146.545C13.558 148.991 15.1817 161.48 11.0033 164.632C9.3262 160.511 6.36926 155.854 6.97109 151.518L7.01837 151.199C7.33832 148.964 9.01238 147.963 10.8056 146.545Z"/>
<path d="M18.5969 201.385C20.188 201.424 20.3772 201.483 21.8124 202.175C25.7482 206.817 25.4454 211.71 25.2913 217.581C21.5771 216.151 19.4529 205.031 18.5969 201.385Z"/>
<path d="M812.155 148.248C813.622 150.371 811.117 159.393 810.54 162.757C806.861 160.094 810.368 151.309 812.155 148.248Z"/>
<path d="M797.893 203.407L798.71 204.341C798.661 207.038 796.972 212.66 796.204 215.517C793.214 213.418 796.401 205.913 797.893 203.407Z"/>
</mask>
<path d="M409.256 0.101295C418.59 -0.079044 428.085 0.00612056 437.419 0.164232C442.719 0.254125 445.495 1.48199 451.009 0.853475C452.127 2.37613 449.867 5.78654 448.835 7.49114C446.385 11.552 446.311 15.8204 445.703 20.6092C442.326 23.8666 437.222 27.355 433.525 30.663C428.072 35.5435 423.337 40.5788 418.277 45.8625L413.671 50.4744C405.018 42.2631 388.824 26.9315 381.635 17.2067C380.038 15.047 378.961 5.57022 378.51 2.25339C389.445 2.15594 398.534 0.531235 409.256 0.101295Z" stroke="white" stroke-width="1.7648" mask="url(#path-1-inside-1_391_461)"/>
<path d="M460.255 2.16302C469.682 1.95959 481.153 1.88671 490.494 2.51105C501.892 3.27342 516.821 6.52394 527.899 7.09873C527.23 13.324 527.052 17.8876 526.929 24.1456C523.834 28.2721 516.802 33.3413 512.553 36.6487C507.978 40.4662 501.64 47.0359 497.145 51.3701C486.103 41.0336 470.793 25.3822 460.445 14.4694C460.132 10.5352 460.243 6.14484 460.255 2.16302Z" stroke="white" stroke-width="1.7648" mask="url(#path-1-inside-1_391_461)"/>
<path d="M359.592 2.46369C363.312 2.00931 367.771 2.13187 371.576 2.13248L371.467 12.6037C360.224 25.79 343.733 38.5697 331.278 53.4904C329.143 50.8378 325.6 47.276 323.189 44.7086C313.99 35.2699 300.925 27.4214 302.391 13.1938C302.5 12.1318 301.106 11.006 301.026 9.31847C306.448 7.57961 324.515 6.24172 330.736 5.88392C341.831 5.24595 348.793 4.04934 359.592 2.46369Z" stroke="white" stroke-width="1.7648" mask="url(#path-1-inside-1_391_461)"/>
<path d="M413.363 73.3978C416.335 75.1649 441.901 101.367 445.162 105.169C439.592 112.521 422.593 128.296 414.978 136.425L413.934 137.116C409.93 135.928 387.85 110.01 383.972 105.218C393.638 95.6015 402.665 84.1186 413.363 73.3978Z" stroke="white" stroke-width="1.7648" mask="url(#path-1-inside-1_391_461)"/>
<path d="M455.266 31.467C460.51 32.4777 480.985 57.9912 485.879 63.208C475.912 71.4236 468.844 83.5279 456.715 93.9479L455.825 94.1419C451.747 92.9016 429.915 67.0548 425.825 61.9253C429.467 56.8577 449.708 36.8657 455.266 31.467Z" stroke="white" stroke-width="1.7648" mask="url(#path-1-inside-1_391_461)"/>
<path d="M455.751 118.148C460.123 119.631 481.918 146.054 486.302 150.013C477.969 157.219 462.696 172.664 455.462 180.881L454.885 181.305C453.177 180.829 443.057 167.165 440.797 164.763C435.921 159.574 430.345 154.461 425.549 149.259C432.721 139.666 446.95 126.86 455.751 118.148Z" stroke="white" stroke-width="1.7648" mask="url(#path-1-inside-1_391_461)"/>
<path d="M373.497 118.751C377.778 120.312 386.673 133.299 390.462 137.149C394.109 140.856 398.433 145.299 402.037 149.052C393.864 160.575 382.275 171.32 372.063 181.273C370.956 180.101 370.26 179.103 369.325 177.82C361.998 167.763 352.85 158.268 343.259 150.35C350.656 141.417 364.404 125.573 373.497 118.751Z" stroke="white" stroke-width="1.7648" mask="url(#path-1-inside-1_391_461)"/>
<path d="M537.727 7.49605C539.827 8.05132 542.081 8.48003 544.242 8.66951C562.954 10.3106 581.206 14.3744 599.77 16.9985C603.197 17.4824 608.668 18.0131 611.635 19.5678C611.794 21.9006 598.216 36.8597 595.533 40.1843C588.839 47.6401 583.809 50.9882 575.801 57.0272C568.886 50.2551 563.046 43.6386 556.967 36.3955C550.518 28.7144 543.499 23.6518 540.637 13.5813C540.201 12.0409 538.556 9.07532 537.727 7.49605Z" stroke="white" stroke-width="1.7648" mask="url(#path-1-inside-1_391_461)"/>
<path d="M371.811 32.0046C374.134 33.4071 383.167 42.8434 385.44 45.1572C391.359 51.2756 397.445 57.2243 403.703 62.9967C394.571 71.757 382.537 84.6067 373.742 92.446C373.276 92.8131 372.587 92.8678 371.948 93.0096C368.808 91.4138 347.467 69.008 342.539 64.2794C354.028 51.9375 362.234 46.5575 371.811 32.0046Z" stroke="white" stroke-width="1.7648" mask="url(#path-1-inside-1_391_461)"/>
<path d="M497.172 75.8102C502.975 82.6891 509.608 88.8078 515.688 95.4712C519.446 99.5938 521.558 103.561 525.188 107.609C520.607 113.769 503.043 135.97 496.423 137.835C495.41 137.135 493.819 136.023 493.168 135.029C486.241 124.448 476.612 114.912 467.001 106.667C478.055 95.9029 486.953 87.3808 497.172 75.8102Z" stroke="white" stroke-width="1.7648" mask="url(#path-1-inside-1_391_461)"/>
<path d="M414.623 161.783C418.971 163.696 438.923 186.925 442.915 192.769C436.018 200.519 421.397 214.437 413.517 222.477C404.343 212.06 393.35 202.685 384.159 192.469C388.194 187.26 409.133 166.969 414.623 161.783Z" stroke="white" stroke-width="1.7648" mask="url(#path-1-inside-1_391_461)"/>
<path d="M331.079 77.6154C331.024 77.5982 357.813 104.54 359.753 106.594C354.898 111.141 350.827 116.976 346.34 121.815C341.345 127.202 336.746 131.59 332.077 137.31C331.732 137.499 331.311 137.411 330.852 137.404C322.312 129.676 312.427 116.798 304.12 107.704C313.117 98.0354 322.048 86.6741 331.079 77.6154Z" stroke="white" stroke-width="1.7648" mask="url(#path-1-inside-1_391_461)"/>
<path d="M284.016 11.0931C285.509 10.9614 286.556 10.6889 287.782 11.5685C288.918 13.8674 291.561 18.5123 289.481 20.8575C281.546 29.8014 272.248 37.5896 264.427 46.6755C261.167 50.4633 258.243 54.3433 254.853 58.0538C249.898 54.0351 245.951 50.0918 241.401 45.6311C232.332 36.8108 228.646 32.1705 222.443 21.3512C230.659 20.8499 238.639 18.0694 246.369 17.0042C258.685 15.3073 271.876 12.5906 284.016 11.0931Z" stroke="white" stroke-width="1.7648" mask="url(#path-1-inside-1_391_461)"/>
<path d="M496.678 164.831C502.027 165.006 520.727 189.103 522.833 195.13C515.617 203.244 503.507 214.694 495.61 222.651C488.13 213.459 476.99 200.823 468.951 192.513C471.622 189.06 492.987 167.769 496.678 164.831Z" stroke="white" stroke-width="1.7648" mask="url(#path-1-inside-1_391_461)"/>
<path d="M535.797 38.3057C541.87 41.3668 558.107 62.4816 564.347 68.7508C557.493 75.9441 545.85 88.531 538.64 94.5816C533.678 91.8971 513.677 70.5536 510.434 63.897C514.751 58.3253 529.883 44.373 535.797 38.3057Z" stroke="white" stroke-width="1.7648" mask="url(#path-1-inside-1_391_461)"/>
<path d="M537.143 121.71C543.259 126.26 558.808 146.034 563.248 152.788C557.795 157.278 553.208 163.723 548.553 169.134C544.776 173.527 541.233 177.135 537.13 181.25C529.988 173.501 523.792 164.938 516.116 157.647C514.071 155.701 512.013 153.32 510.122 151.212C517.497 141.549 532.132 132.326 537.143 121.71Z" stroke="white" stroke-width="1.7648" mask="url(#path-1-inside-1_391_461)"/>
<path d="M455.232 205.986C456.356 206.029 457.94 206.844 458.64 207.679C466.335 216.797 473.698 225.126 482.154 233.613C476.879 239.439 470.327 245.539 464.523 250.88C460.624 254.467 458.394 255.043 454.894 259.295C452.051 255.942 445.252 250.575 441.592 247.447C435.93 242.614 432.381 239.145 427.425 233.585C432.338 228.018 449.84 210.741 455.232 205.986Z" stroke="white" stroke-width="1.7648" mask="url(#path-1-inside-1_391_461)"/>
<path d="M331.159 164.295C339.548 174.244 349.113 182.952 358.413 192.06C348.845 204.756 343.969 209.017 333.074 220.424C331.158 221.22 309.269 195.643 306.53 192.382C314.122 183.237 323.618 173.507 331.159 164.295Z" stroke="white" stroke-width="1.7648" mask="url(#path-1-inside-1_391_461)"/>
<path d="M372.007 206.532C373.496 206.825 398.41 232.139 401.966 235.059C389.032 243.605 385.029 248.23 374.508 259.036L373.769 259.304C373.911 259.349 347.944 236.842 345.509 234.739C350.724 231.068 363.725 213.746 372.007 206.532Z" stroke="white" stroke-width="1.7648" mask="url(#path-1-inside-1_391_461)"/>
<path d="M613.876 20.5085C621.774 22.295 630.193 23.395 638.232 25.275C651.552 28.3878 665.167 32.3639 678.567 34.9075C673.82 39.3257 672.634 44.2672 670.411 50.2742C668.52 51.008 666.893 51.7245 665.044 52.5707C659.824 55.6537 652.203 63.415 647.487 67.928C639.423 53.8233 626.22 44.7607 619.121 30.3397C617.383 26.8211 615.915 23.8901 613.876 20.5085Z" stroke="white" stroke-width="1.7648" mask="url(#path-1-inside-1_391_461)"/>
<path d="M291.945 123.613C292.62 123.718 316.151 147.518 318.607 150.011C315.15 152.964 311.228 158.667 308.025 162.246C303.387 167.429 298.641 172.415 293.853 177.455C293.526 178.07 293.016 178.236 292.386 178.572C287.379 175.452 274.782 158.584 268.889 152.903C276.225 140.964 282.598 134.101 291.945 123.613Z" stroke="white" stroke-width="1.7648" mask="url(#path-1-inside-1_391_461)"/>
<path d="M577.582 83.9037C578.589 85.1489 578.89 86.2437 579.701 87.3324C586.223 96.0448 594.446 103.338 599.408 113.204C595.14 119.42 582.747 135.267 576.299 139.043L575.82 138.171C574.542 136.372 573.198 134.697 571.656 133.12C564.434 125.737 557.962 117.782 551.041 110.13C556.647 103.364 570.803 90.3645 577.582 83.9037Z" stroke="white" stroke-width="1.7648" mask="url(#path-1-inside-1_391_461)"/>
<path d="M292.545 40.0043C301.643 47.7437 309.965 57.7241 318.843 65.4239C314.304 68.8594 308.681 76.4144 304.765 80.9649C300.855 85.5093 297.617 88.8385 293.329 93.0913C288.339 96.4524 273.404 74.5833 268.955 70.1237C271.322 67.3636 273.685 63.4327 276.288 60.4018C282.619 53.0299 287.778 48.5194 292.545 40.0043Z" stroke="white" stroke-width="1.7648" mask="url(#path-1-inside-1_391_461)"/>
<path d="M254.228 86.1479C257.583 87.6001 274.718 106.394 277.629 110.461C270.974 117.63 259.141 130.141 255.051 138.806C248.331 133.576 240.556 121.604 231.384 113.447C238.556 106.842 247.923 94.1659 254.228 86.1479Z" stroke="white" stroke-width="1.7648" mask="url(#path-1-inside-1_391_461)"/>
<path d="M211.536 23.1979C212.485 23.2666 212.133 23.1558 212.946 24.0114C210.346 32.2576 216.85 32.3212 208.124 40.6429C199.868 48.5164 192.598 58.332 184.388 66.5741C181.286 62.9022 179.111 60.7685 175.588 57.4663C163.125 45.652 164.411 54.0535 165.411 34.2715C170.318 32.4704 181.891 30.3261 187.293 29.1715C195.417 27.3558 203.499 25.3642 211.536 23.1979Z" stroke="white" stroke-width="1.7648" mask="url(#path-1-inside-1_391_461)"/>
<path d="M534.883 208.419C540.686 212.165 551.537 228.427 557.648 233.605C549.965 241.631 542.08 249.462 534.005 257.092C527.01 250.845 516.073 240.592 510.177 233.664C517.031 224.971 527.421 217.086 534.883 208.419Z" stroke="white" stroke-width="1.7648" mask="url(#path-1-inside-1_391_461)"/>
<path d="M574.518 169.026C578.381 170.408 591.4 190.929 594.427 195.526C587.672 200.245 579.026 212.839 571.404 219.995C565.048 212.579 557.605 202.602 551.084 194.673C556.095 188.989 562.217 184.033 566.885 177.961C569.286 174.835 571.748 171.839 574.518 169.026Z" stroke="white" stroke-width="1.7648" mask="url(#path-1-inside-1_391_461)"/>
<path d="M612.838 130.454C617.198 133.788 628.651 151.863 632.643 157.297C622.762 165.205 619.403 172.195 610.805 181.117C608.453 179.702 595.447 160.858 589.803 155.702C595.066 146.171 605.751 138.769 612.838 130.454Z" stroke="white" stroke-width="1.7648" mask="url(#path-1-inside-1_391_461)"/>
<path d="M611.529 52.4871C615.201 53.1748 632.071 74.756 634.84 78.6403C628.755 85.2865 620.384 93.2356 613.875 99.8192C613.371 100.41 613.586 100.151 612.64 100.439C611.682 96.3929 596.348 80.9465 591.675 72.0321C596.968 66.1129 605.375 57.2495 611.529 52.4871Z" stroke="white" stroke-width="1.7648" mask="url(#path-1-inside-1_391_461)"/>
<path d="M294.119 208.317C295.017 208.661 297.765 213.363 299.158 214.907C305.127 221.52 312.163 229.063 318.874 234.825C311.96 241.248 305.009 248.308 298.266 254.958C297.77 255.477 297.426 255.502 296.712 255.779C293.538 253.798 277.144 237.162 274.055 233.729C281.974 224.507 287.413 218.484 294.119 208.317Z" stroke="white" stroke-width="1.7648" mask="url(#path-1-inside-1_391_461)"/>
<path d="M255.141 169.003C261.716 174.213 274.445 187.644 277.172 195.523C271.31 203.023 265.281 210.39 259.089 217.62C255.906 217.116 242.413 199.593 237.107 194.699C238.701 191.755 252.363 172.739 255.141 169.003Z" stroke="white" stroke-width="1.7648" mask="url(#path-1-inside-1_391_461)"/>
<path d="M684.35 37.0031C694.618 39.942 705.193 43.398 715.411 46.5675C722.161 48.6607 729.229 52.3754 736.187 53.7244C733.313 58.539 728.418 63.1853 724.39 67.1537C719.686 71.8565 715.866 75.6506 710.775 79.9285C706.63 76.1037 704.149 71.1774 700.642 67.0733C692.622 57.6971 689.545 48.067 684.35 37.0031Z" stroke="white" stroke-width="1.7648" mask="url(#path-1-inside-1_391_461)"/>
<path d="M218.24 130.264C220.123 131.68 237.065 151.779 239.123 154.594C234.967 161.41 226.342 170.922 221.236 178.013L220.358 178.048C212.861 170.888 207.07 164.814 201.756 155.807C204.467 149.842 214.021 137.647 218.24 130.264Z" stroke="white" stroke-width="1.7648" mask="url(#path-1-inside-1_391_461)"/>
<path d="M147.663 39.1392C148.622 39.2641 148.316 39.2147 149.161 40.0015C149.35 41.599 149.355 44.2084 148.653 45.5961C142.551 57.6554 130.547 66.6263 124.54 78.9141C121.868 76.8485 116.379 71.2757 113.722 68.7287C108.047 63.3867 104.515 59.7879 99.5698 53.8669C103.748 52.8746 113.868 48.9891 118.411 47.4835C128.06 44.3585 137.817 41.5753 147.663 39.1392Z" stroke="white" stroke-width="1.7648" mask="url(#path-1-inside-1_391_461)"/>
<path d="M219.577 54.1745C223.795 56.3997 234.937 69.0554 238.888 73.332C233.654 81.3954 224.885 92.8949 217.729 99.1045L217.099 99.1198C215.875 98.0754 213.553 94.4287 212.197 92.796C208.191 88.006 204.005 83.3695 199.649 78.8957C205.868 72.9016 212.328 61.116 219.577 54.1745Z" stroke="white" stroke-width="1.7648" mask="url(#path-1-inside-1_391_461)"/>
<path d="M647.08 95.3847C649.389 97.2992 662.973 118.027 665.202 121.422C657.452 129.481 657.71 133.642 646.011 142.289C645.428 141.947 629.301 119.436 627.907 117.56C636.277 110.137 640.392 104.116 647.08 95.3847Z" stroke="white" stroke-width="1.7648" mask="url(#path-1-inside-1_391_461)"/>
<path d="M605.577 213.918C605.688 213.926 605.799 213.918 605.909 213.941C608.372 214.47 618.977 231.809 621.256 234.881C614.55 240.943 607.715 247.846 601.076 254.134L600.794 254.377L599.737 254.29C594.812 247.157 589.39 241.687 586.018 233.694C589.543 228.933 601.033 217.566 605.577 213.918Z" stroke="white" stroke-width="1.7648" mask="url(#path-1-inside-1_391_461)"/>
<path d="M223.031 213.163C225.101 213.768 242.049 231.724 243.965 234.447C241.63 238.817 232.564 249.198 228.886 253.567L227.671 253.743C221.292 247.375 214.852 241.07 208.35 234.827C213.306 228.071 218.343 220.188 223.031 213.163Z" stroke="white" stroke-width="1.7648" mask="url(#path-1-inside-1_391_461)"/>
<path d="M183.698 98.3092C189.258 102.703 198.328 112.583 204.14 117.982C196.516 125.179 193.157 130.347 187.113 138.845L185.823 139.906C183.39 139.469 171.3 123.775 168.408 120.469C174.3 111.52 178.329 109.761 183.698 98.3092Z" stroke="white" stroke-width="1.7648" mask="url(#path-1-inside-1_391_461)"/>
<path d="M677.664 138.938C679.328 140.039 689.479 159.414 691.782 162.884C687.71 168.804 679.365 175.679 673.555 183.809C671.78 182.262 661.543 163.575 659.541 160.174C665.793 152.354 672.646 148.196 677.664 138.938Z" stroke="white" stroke-width="1.7648" mask="url(#path-1-inside-1_391_461)"/>
<path d="M186.783 175.291C194.218 180.494 201.305 190.062 206.771 197.136C201.998 203.436 197.313 209.803 192.719 216.236L191.768 216.627C187.679 216.257 180.682 202.758 176.545 200.28C175.943 199.919 174.074 198.274 173.353 197.715C178.077 191.607 184.6 182.602 186.783 175.291Z" stroke="white" stroke-width="1.7648" mask="url(#path-1-inside-1_391_461)"/>
<path d="M642.63 176.447C646.376 178.864 653.371 192.946 655.864 197.488C650.245 205.1 644.614 211.069 638.08 217.872C636.692 216.574 626.841 201.163 625.147 198.557C628.917 187.259 634.862 185.161 642.63 176.447Z" stroke="white" stroke-width="1.7648" mask="url(#path-1-inside-1_391_461)"/>
<path d="M679.864 67.2231C681.061 67.9384 693.675 87.7014 696.359 91.0055C690.377 95.9078 684.979 100.882 681.061 107.598C677.432 106.494 666.237 88.7637 664.1 84.3605C668.042 79.1468 675.184 72.8555 679.864 67.2231Z" stroke="white" stroke-width="1.7648" mask="url(#path-1-inside-1_391_461)"/>
<path d="M154.693 139.489C156.929 140.445 168.131 155.716 171.348 159.206C167.967 165.143 162.319 175.579 158.119 180.573L157.347 180.911C153.881 179.482 144.492 165.951 141.777 162.202C144.37 155.911 151.12 146.684 154.693 139.489Z" stroke="white" stroke-width="1.7648" mask="url(#path-1-inside-1_391_461)"/>
<path d="M89.7123 56.98L91.04 57.1623C93.1919 63.1632 76.5464 85.9508 72.8691 92.0714L65.2462 84.716C59.7812 79.1505 57.9911 76.7085 54.288 69.8444C64.8053 67.6112 77.5173 60.0746 89.7123 56.98Z" stroke="white" stroke-width="1.7648" mask="url(#path-1-inside-1_391_461)"/>
<path d="M154.508 68.3118C158.458 71.3936 166.729 80.7077 169.628 84.5405C165.024 92.2434 158.897 98.0944 154.198 106.702L137.88 90.7139C143.977 84.8192 148.44 75.1072 154.508 68.3118Z" stroke="white" stroke-width="1.7648" mask="url(#path-1-inside-1_391_461)"/>
<path d="M742.2 56.6877C751.418 59.8904 760.365 63.1036 769.128 67.4178C772.15 68.9074 775.534 70.5493 778.758 71.4894C775.927 76.4851 774.011 78.8718 770.252 83.2007C767.077 86.5618 763.859 89.6755 760.555 92.8899C754.998 84.9739 743.453 65.833 742.2 56.6877Z" stroke="white" stroke-width="1.7648" mask="url(#path-1-inside-1_391_461)"/>
<path d="M708.983 109.547C709.474 110.002 720.473 128.928 721.75 131.041C716.334 138.527 713.282 138.456 706.901 149.3C703.284 141.378 698.083 134.912 693.962 125.35C698.304 120.251 704.15 115.08 708.983 109.547Z" stroke="white" stroke-width="1.7648" mask="url(#path-1-inside-1_391_461)"/>
<path d="M668.108 217.695C670.43 219.392 675.428 231.134 678.18 235.144C671.13 240.737 665.707 249.869 661.55 253.037C657.582 246.729 653.118 242.381 649.98 235.028L668.108 217.695Z" stroke="white" stroke-width="1.7648" mask="url(#path-1-inside-1_391_461)"/>
<path d="M124.343 109.355C128.225 111.554 135.362 122.449 137.931 126.597C134.419 134.05 130.242 140.171 125.525 146.863C123.88 145.443 123.606 143.556 121.761 141.426C118.633 137.816 115.433 134.729 112.023 131.409C115.231 124.834 120.56 116.665 124.343 109.355Z" stroke="white" stroke-width="1.7648" mask="url(#path-1-inside-1_391_461)"/>
<path d="M161.842 216.683C166.105 218.175 174.87 231.088 179.526 235.439C176.193 239.605 172.293 246.446 169.425 251.143C168.986 251.564 169.069 251.404 168.332 251.595C163.816 247.186 156.39 240.374 152.903 235.545L161.842 216.683Z" stroke="white" stroke-width="1.7648" mask="url(#path-1-inside-1_391_461)"/>
<path d="M701.571 182.598C701.995 182.976 707.307 196.947 709.444 200.209C703.991 205.225 701.583 215.439 693.858 216.902C691.058 213.219 688.632 205.043 685.359 200.35C691.236 194.405 695.743 186.213 701.571 182.598Z" stroke="white" stroke-width="1.7648" mask="url(#path-1-inside-1_391_461)"/>
<path d="M128.747 183.585C133.138 185.446 141.381 195.11 144.847 198.918C141.917 204.75 138.878 210.527 135.731 216.245C135.257 216.613 135.273 216.477 134.526 216.597C121.037 201.078 117.311 202.334 128.747 183.585Z" stroke="white" stroke-width="1.7648" mask="url(#path-1-inside-1_391_461)"/>
<path d="M731.925 151.279C733.798 152.402 738.643 164.824 741.057 168.922C736.316 174.043 730.058 180.477 726.085 185.99C725.342 185.291 717.856 168.291 716.934 166.16C721.522 161.308 727.116 156.006 731.925 151.279Z" stroke="white" stroke-width="1.7648" mask="url(#path-1-inside-1_391_461)"/>
<path d="M99.238 148.735C100.147 149.364 106.081 157.327 107.523 158.901C110.253 161.88 111.528 163.023 114.773 165.738C111.793 171.093 108.198 176.607 104.93 181.827C103.897 183.144 104.427 182.833 102.977 183.169C99.2761 180.397 93.9051 171.093 91.3203 166.884C93.4316 161.89 98.2824 153.501 99.238 148.735Z" stroke="white" stroke-width="1.7648" mask="url(#path-1-inside-1_391_461)"/>
<path d="M735.992 84.9905C740.186 90.545 744.368 97.7929 747.691 103.918C742.035 108.604 739.781 111.202 735.556 117.197C732.915 116.313 726.307 100.597 724.14 96.8768C728.07 93.1706 732.596 89.1266 735.992 84.9905Z" stroke="white" stroke-width="1.7648" mask="url(#path-1-inside-1_391_461)"/>
<path d="M44.0336 75.9127L45.2778 76.2087C47.1146 80.9956 35.2162 99.3875 32.3532 104.084C29.7721 101.864 29.0984 100.944 27.0817 98.2558C24.8525 94.5527 20.9504 90.7537 17.7172 87.9193C27.2181 84.2334 34.9478 79.5115 44.0336 75.9127Z" stroke="white" stroke-width="1.7648" mask="url(#path-1-inside-1_391_461)"/>
<path d="M97.7094 85.389C101.156 89.0633 106.207 93.378 110.03 96.827C106.802 100.719 102.677 108.446 98.8007 113.569C98.3401 114.066 98.1761 114.01 97.4736 114.236C94.0186 111.255 90.4807 107.529 87.237 104.259C90.4199 93.8103 93.4715 93.6691 97.7094 85.389Z" stroke="white" stroke-width="1.7648" mask="url(#path-1-inside-1_391_461)"/>
<path d="M786.497 75.524C791.152 76.8608 804.527 85.7285 809.44 88.849L802.347 98.5616C800.548 101.303 798.411 104.228 796.52 106.942C794.935 98.4394 791.766 95.4946 788.8 87.8444C787.24 83.8379 789.113 80.2526 786.497 75.524Z" stroke="white" stroke-width="1.7648" mask="url(#path-1-inside-1_391_461)"/>
<path d="M111.038 219.976C116.675 224.863 119.176 227.263 123.794 233.139C123.028 237.631 121.741 246.114 118.82 249.305C113.224 245.245 109.544 241.411 105.043 236.349C106.538 230.373 108.625 225.565 111.038 219.976Z" stroke="white" stroke-width="1.7648" mask="url(#path-1-inside-1_391_461)"/>
<path d="M718.409 220.224C719.944 221.786 720.743 230.648 722.253 232.722C722.708 233.349 723.255 234.389 723.672 235.095C720.399 240.85 715.799 245.737 710.248 249.345C709.118 249.628 709.591 249.645 708.338 248.934C706.133 244.12 705.66 239.715 705.107 234.494C713.779 228.023 711.089 225.493 718.409 220.224Z" stroke="white" stroke-width="1.7648" mask="url(#path-1-inside-1_391_461)"/>
<path d="M756.467 124.173C756.682 124.179 756.903 124.185 757.118 124.19C757.308 124.072 758.831 125.183 758.831 125.183C761.294 130.558 762.497 134.952 765.666 140.03C761.312 144.517 758.837 148.223 755.447 153.497C755.079 153.617 754.87 153.423 754.342 153.237C751.849 148.248 749.57 142.579 747.366 137.419C749.441 131.885 752.107 128.058 756.467 124.173Z" stroke="white" stroke-width="1.7648" mask="url(#path-1-inside-1_391_461)"/>
<path d="M80.895 187.451C84.0657 190.04 92.0239 198.443 95.2554 201.752C92.3291 207.047 90.2283 210.458 88.884 216.362C88.634 216.718 88.526 216.622 87.9272 216.819C82.9898 213.301 79.5551 207.44 76.0761 202.386C78.3373 197.179 80.2717 193.116 80.895 187.451Z" stroke="white" stroke-width="1.7648" mask="url(#path-1-inside-1_391_461)"/>
<path d="M74.0292 123.533C76.5059 125.226 83.5657 133.102 85.5142 135.498L76.3167 151.185L75.5497 151.351C71.9615 146.674 70.4741 144.603 66.2932 140.188C69.1624 133.761 70.417 129.753 74.0292 123.533Z" stroke="white" stroke-width="1.7648" mask="url(#path-1-inside-1_391_461)"/>
<path d="M55.6513 157.91C57.318 158.645 61.7992 166.729 67.1327 170.884C65.5889 177.528 64.4049 180.816 61.2293 186.823L60.1546 186.755C47.2436 169.965 50.4523 177.402 55.6513 157.91Z" stroke="white" stroke-width="1.7648" mask="url(#path-1-inside-1_391_461)"/>
<path d="M747.1 189.337C748.856 190.659 750.797 201.349 751.675 204.671C747.935 208.577 745.374 211.705 742.187 216.23C741.29 216.482 740.517 216.7 739.866 216.883C737.072 214.166 735.88 206.786 734.916 202.694C743.342 195.941 741.131 196.129 747.1 189.337Z" stroke="white" stroke-width="1.7648" mask="url(#path-1-inside-1_391_461)"/>
<path d="M773.134 160.52C776.192 162.66 775.866 170.439 776.272 173.532C776.321 173.906 777.709 173.89 778.526 175.676C774.755 180.353 773.25 183.881 768.681 187.409C767.963 187.657 767.293 187.498 766.52 187.414C765.07 185.492 763.707 176.168 763.21 173.229C766.262 167.05 768.024 165.094 773.134 160.52Z" stroke="white" stroke-width="1.7648" mask="url(#path-1-inside-1_391_461)"/>
<path d="M52.1337 100.136C52.1497 100.147 59.3654 108.775 60.3541 109.826C58.5548 115.022 56.056 119.552 53.2041 124.242C40.3956 115.592 47.5893 111.107 52.1337 100.136Z" stroke="white" stroke-width="1.7648" mask="url(#path-1-inside-1_391_461)"/>
<path d="M69.4329 221.714C70.8373 222.703 76.3379 231.331 80.8363 234.896C79.1972 237.758 77.0564 243.462 75.3811 246.943L74.4747 246.856C64.3659 232.682 62.76 239.807 69.4329 221.714Z" stroke="white" stroke-width="1.7648" mask="url(#path-1-inside-1_391_461)"/>
<path d="M779.802 100.484C780.865 101.818 785.434 114.242 786.386 116.678C783.456 120.087 781.049 122.617 777.85 125.786C776.486 125.184 775.651 120.056 774.828 118.276C773.821 116.085 772.875 113.956 771.782 111.793C773.932 107.603 776.812 104.08 779.802 100.484Z" stroke="white" stroke-width="1.7648" mask="url(#path-1-inside-1_391_461)"/>
<path d="M757.524 221.94C758.839 224.187 757.807 227.714 758.065 230.264C758.163 231.271 759.981 233.521 759.864 234.448C759.514 237.181 751.899 246.342 750.198 248.692C747.183 246.208 747.281 238.417 747.183 234.79C750.259 231.424 755.621 225.802 757.524 221.94Z" stroke="white" stroke-width="1.7648" mask="url(#path-1-inside-1_391_461)"/>
<path d="M35.4085 135.85C48.7568 144.958 39.9554 148.81 38.0977 158.719L38.0523 158.968C36.1166 155.143 32.3674 152.386 29.0734 149.73C32.4086 145.795 33.3341 140.972 35.4085 135.85Z" stroke="white" stroke-width="1.7648" mask="url(#path-1-inside-1_391_461)"/>
<path d="M794.37 135.285C795.156 137.883 796.218 144.971 797.287 148.966C795.181 154.175 793.068 157.399 789.003 161.201C787.406 155.926 789.34 155.673 785.539 147.76C788.266 142.307 790.084 139.602 794.37 135.285Z" stroke="white" stroke-width="1.7648" mask="url(#path-1-inside-1_391_461)"/>
<path d="M44.1096 194.238C48.2278 198.33 49.6053 199.546 52.6611 204.515L52.6814 205.153C52.8208 209.68 53.702 213.871 50.7199 217.039C45.9304 215.764 43.8179 209.96 41.4831 205.762C42.8464 201.186 43.4439 198.94 44.1096 194.238Z" stroke="white" stroke-width="1.7648" mask="url(#path-1-inside-1_391_461)"/>
<path d="M11.0438 93.6955C14.2397 97.6621 6.64496 110.91 6.45704 117.654L6.45213 117.906L5.73792 118.198L3.64995 115.007L3.37176 114.702C-5.03909 105.445 4.10072 99.9346 11.0438 93.6955Z" stroke="white" stroke-width="1.7648" mask="url(#path-1-inside-1_391_461)"/>
<path d="M23.2265 166.965C25.4324 167.908 32.8434 178.646 32.4031 179.384C29.6236 184.052 29.3774 183.874 29.5377 189.38L28.759 189.829C18.5709 179.252 21.6924 181.192 23.2265 166.965Z" stroke="white" stroke-width="1.7648" mask="url(#path-1-inside-1_391_461)"/>
<path d="M780.152 197.476C785.9 200.706 782.001 209.13 780.091 213.598C778.555 214.854 776.062 216.367 774.343 217.485C774.459 207.086 768.896 205.676 780.152 197.476Z" stroke="white" stroke-width="1.7648" mask="url(#path-1-inside-1_391_461)"/>
<path d="M784.55 223.583L785.754 224.687C786.435 227.483 786.11 231.063 786.005 233.999C783.365 238.394 781.344 242.194 777.518 245.614C776.843 245.193 776.8 244.935 776.339 244.237C775.197 235.505 779.164 231.049 784.55 223.583Z" stroke="white" stroke-width="1.7648" mask="url(#path-1-inside-1_391_461)"/>
<path d="M36.8771 224.304C38.1618 225.325 38.1293 226.505 38.8994 227.401C40.9045 229.734 43.4014 232.186 45.552 234.36C45.7498 238.079 45.5207 242.01 45.3727 245.748C35.1896 242.792 36.7494 232.778 36.8771 224.304Z" stroke="white" stroke-width="1.7648" mask="url(#path-1-inside-1_391_461)"/>
<path d="M18.6697 116.564C20.2738 117.017 21.7538 118.522 22.8309 119.707C26.402 123.635 20.786 128.957 20.5735 135.338L20.5673 135.565C17.6264 134.66 15.4629 130.053 14.0615 127.432C15.9001 123.594 15.5863 119.862 18.6697 116.564Z" stroke="white" stroke-width="1.7648" mask="url(#path-1-inside-1_391_461)"/>
<path d="M800.615 168.972L801.769 169.952C803.734 180.544 799.792 183.861 795.499 193.072C794.191 181.166 792.797 178.587 800.615 168.972Z" stroke="white" stroke-width="1.7648" mask="url(#path-1-inside-1_391_461)"/>
<path d="M813.32 93.4493C821.74 98.5291 821.046 108.374 817.527 116.217L817.257 116.665L816.262 116.729C814.591 113.78 812.909 97.2114 813.32 93.4493Z" stroke="white" stroke-width="1.7648" mask="url(#path-1-inside-1_391_461)"/>
<path d="M806.823 116.028C814.407 120.614 810.667 129.347 808.149 135.968C800.719 132.474 805.441 121.556 806.823 116.028Z" stroke="white" stroke-width="1.7648" mask="url(#path-1-inside-1_391_461)"/>
<path d="M10.8056 146.545C13.558 148.991 15.1817 161.48 11.0033 164.632C9.3262 160.511 6.36926 155.854 6.97109 151.518L7.01837 151.199C7.33832 148.964 9.01238 147.963 10.8056 146.545Z" stroke="white" stroke-width="1.7648" mask="url(#path-1-inside-1_391_461)"/>
<path d="M18.5969 201.385C20.188 201.424 20.3772 201.483 21.8124 202.175C25.7482 206.817 25.4454 211.71 25.2913 217.581C21.5771 216.151 19.4529 205.031 18.5969 201.385Z" stroke="white" stroke-width="1.7648" mask="url(#path-1-inside-1_391_461)"/>
<path d="M812.155 148.248C813.622 150.371 811.117 159.393 810.54 162.757C806.861 160.094 810.368 151.309 812.155 148.248Z" stroke="white" stroke-width="1.7648" mask="url(#path-1-inside-1_391_461)"/>
<path d="M797.893 203.407L798.71 204.341C798.661 207.038 796.972 212.66 796.204 215.517C793.214 213.418 796.401 205.913 797.893 203.407Z" stroke="white" stroke-width="1.7648" mask="url(#path-1-inside-1_391_461)"/>
</svg>
