<svg width="1000" height="350" viewBox="0 0 1000 350" fill="none" xmlns="http://www.w3.org/2000/svg">
<defs>
  <linearGradient id="readiness-gradient" x1="0" y1="0" x2="0" y2="350" gradientUnits="userSpaceOnUse">
    <stop offset="0%" stop-color="#940000" />
    <stop offset="100%" stop-color="#ffffff" />
  </linearGradient>
</defs>
<mask id="path-1-inside-1_459_511" fill="white">
<path d="M499.093 0.136724C510.476 -0.106691 522.054 0.00826133 533.438 0.221675C539.901 0.343009 543.286 2.00034 550.011 1.15199C551.374 3.20722 548.618 7.81048 547.36 10.1113C544.372 15.5925 544.282 21.3539 543.541 27.8176C539.422 32.2143 533.198 36.9229 528.69 41.3879C522.039 47.9754 516.265 54.7719 510.094 61.9037L504.477 68.1287C493.925 57.0454 474.176 36.3513 465.409 23.2251C463.461 20.31 462.147 7.5185 461.598 3.04155C474.933 2.91002 486.017 0.717043 499.093 0.136724Z"/>
<path d="M561.287 2.91957C572.783 2.64499 586.772 2.54662 598.163 3.38933C612.063 4.41835 630.269 8.8058 643.78 9.58163C642.963 17.9842 642.746 24.1441 642.596 32.5909C638.822 38.1607 630.247 45.003 625.064 49.4672C619.485 54.6199 611.756 63.4875 606.274 69.3377C592.809 55.3858 574.138 34.26 561.519 19.5303C561.137 14.22 561.272 8.2941 561.287 2.91957Z"/>
<path d="M438.527 3.3254C443.063 2.7121 448.501 2.87752 453.142 2.87835L453.009 17.012C439.297 34.8105 419.187 52.0601 403.998 72.1995C401.393 68.6192 397.074 63.8116 394.133 60.3461C382.915 47.6061 366.982 37.0125 368.769 17.8085C368.903 16.3751 367.202 14.8555 367.104 12.5778C373.717 10.2307 395.75 8.42486 403.337 7.94192C416.867 7.08081 425.357 5.46567 438.527 3.3254Z"/>
<path d="M504.101 99.0699C507.726 101.455 538.903 136.821 542.88 141.954C536.087 151.877 515.357 173.169 506.071 184.142L504.798 185.075C499.915 183.47 472.988 148.488 468.258 142.019C480.046 129.04 491.055 113.541 504.101 99.0699Z"/>
<path d="M555.202 42.4731C561.598 43.8374 586.567 78.2746 592.536 85.316C580.381 96.4052 571.761 112.743 556.97 126.808L555.884 127.07C550.911 125.395 524.287 90.5084 519.299 83.5847C523.74 76.7447 548.425 49.7601 555.202 42.4731Z"/>
<path d="M555.793 159.472C561.126 161.474 587.705 197.139 593.052 202.482C582.889 212.21 564.264 233.056 555.441 244.148L554.737 244.719C552.655 244.076 540.313 225.634 537.557 222.391C531.611 215.387 524.811 208.487 518.962 201.465C527.709 188.516 545.061 171.231 555.793 159.472Z"/>
<path d="M455.485 160.287C460.704 162.393 471.553 179.922 476.173 185.119C480.621 190.122 485.893 196.12 490.29 201.186C480.322 216.739 466.19 231.243 453.735 244.676C452.386 243.094 451.536 241.747 450.396 240.015C441.461 226.441 430.305 213.624 418.609 202.938C427.629 190.88 444.395 169.494 455.485 160.287Z"/>
<path d="M655.764 10.1179C658.325 10.8674 661.074 11.4461 663.71 11.7018C686.529 13.9169 708.787 19.4021 731.427 22.944C735.606 23.5971 742.279 24.3135 745.896 26.4119C746.091 29.5607 729.532 49.752 726.259 54.2394C718.096 64.303 711.963 68.8222 702.197 76.9734C693.764 67.8326 686.642 58.9019 679.228 49.1254C671.364 38.7577 662.804 31.9244 659.314 18.3316C658.782 16.2524 656.775 12.2496 655.764 10.1179Z"/>
<path d="M453.428 43.1987C456.261 45.0918 467.277 57.8286 470.049 60.9517C477.267 69.2101 484.689 77.2394 492.321 85.0309C481.184 96.8552 466.508 114.199 455.783 124.78C455.215 125.276 454.375 125.35 453.596 125.541C449.766 123.387 423.74 93.1447 417.731 86.7622C431.742 70.1036 441.749 62.8418 453.428 43.1987Z"/>
<path d="M606.307 102.326C613.385 111.611 621.473 119.87 628.887 128.864C633.471 134.428 636.047 139.783 640.473 145.247C634.886 153.562 613.467 183.527 605.394 186.044C604.158 185.1 602.218 183.6 601.425 182.258C592.977 167.975 581.234 155.104 569.513 143.975C582.994 129.446 593.846 117.944 606.307 102.326Z"/>
<path d="M505.638 218.37C510.94 220.952 535.272 252.305 540.14 260.193C531.73 270.654 513.898 289.439 504.29 300.292C493.101 286.231 479.695 273.577 468.487 259.788C473.407 252.757 498.942 225.37 505.638 218.37Z"/>
<path d="M403.755 104.763C403.688 104.739 436.358 141.104 438.724 143.877C432.803 150.015 427.837 157.891 422.366 164.422C416.275 171.693 410.666 177.616 404.972 185.336C404.551 185.591 404.038 185.473 403.477 185.463C393.063 175.032 381.009 157.649 370.878 145.376C381.85 132.325 392.742 116.99 403.755 104.763Z"/>
<path d="M346.361 14.9731C348.181 14.7954 349.459 14.4276 350.954 15.6147C352.339 18.7177 355.563 24.9873 353.025 28.1528C343.349 40.2249 332.009 50.7372 322.472 63.0011C318.496 68.1136 314.93 73.3508 310.797 78.3591C304.753 72.9347 299.941 67.6122 294.391 61.5913C283.331 49.6859 278.837 43.4226 271.271 28.8192C281.291 28.1425 291.023 24.3895 300.45 22.9518C315.469 20.6612 331.556 16.9943 346.361 14.9731Z"/>
<path d="M605.705 222.483C612.228 222.719 635.032 255.245 637.601 263.38C628.801 274.331 614.033 289.787 604.402 300.527C595.28 288.119 581.695 271.064 571.891 259.848C575.149 255.187 601.204 226.449 605.705 222.483Z"/>
<path d="M653.411 51.7037C660.818 55.8355 680.619 84.3356 688.228 92.7976C679.87 102.507 665.671 119.496 656.878 127.663C650.827 124.04 626.435 95.2309 622.481 86.246C627.745 78.7256 646.199 59.8931 653.411 51.7037Z"/>
<path d="M655.052 164.281C662.511 170.422 681.474 197.112 686.888 206.228C680.238 212.288 674.644 220.988 668.967 228.291C664.361 234.221 660.04 239.091 655.037 244.645C646.327 234.186 638.771 222.627 629.409 212.787C626.915 210.16 624.407 206.946 622.1 204.101C631.094 191.059 648.941 178.609 655.052 164.281Z"/>
<path d="M555.161 278.033C556.531 278.092 558.463 279.191 559.317 280.318C568.701 292.625 577.681 303.868 587.993 315.323C581.56 323.187 573.569 331.42 566.492 338.63C561.736 343.472 559.018 344.249 554.749 349.988C551.281 345.461 542.991 338.218 538.527 333.996C531.622 327.472 527.294 322.79 521.25 315.285C527.241 307.771 548.585 284.452 555.161 278.033Z"/>
<path d="M403.853 221.76C414.082 235.188 425.747 246.942 437.089 259.236C425.421 276.373 419.474 282.124 406.187 297.521C403.851 298.596 377.158 264.073 373.817 259.671C383.076 247.328 394.656 234.194 403.853 221.76Z"/>
<path d="M453.667 278.77C455.483 279.165 485.866 313.333 490.202 317.275C474.43 328.81 469.548 335.053 456.717 349.639L455.816 350C455.989 350.061 424.322 319.682 421.353 316.843C427.712 311.887 443.567 288.508 453.667 278.77Z"/>
<path d="M748.63 27.6817C758.261 30.093 768.529 31.5778 778.332 34.1154C794.576 38.3169 811.179 43.6837 827.52 47.1169C821.731 53.0805 820.286 59.7503 817.575 67.8585C815.268 68.8489 813.284 69.8161 811.029 70.9581C804.664 75.1195 795.37 85.5954 789.618 91.687C779.785 72.6489 763.683 60.4165 755.026 40.9516C752.906 36.2023 751.116 32.246 748.63 27.6817Z"/>
<path d="M356.031 166.848C356.854 166.99 385.55 199.115 388.545 202.48C384.329 206.465 379.546 214.163 375.641 218.994C369.984 225.991 364.196 232.72 358.357 239.523C357.958 240.354 357.337 240.576 356.568 241.031C350.463 236.819 335.1 214.051 327.913 206.383C336.86 190.268 344.632 181.005 356.031 166.848Z"/>
<path d="M704.369 113.25C705.597 114.931 705.964 116.409 706.952 117.878C714.906 129.638 724.934 139.482 730.985 152.799C725.78 161.189 710.667 182.579 702.803 187.676L702.219 186.498C700.662 184.07 699.021 181.81 697.142 179.681C688.334 169.715 680.441 158.979 672.001 148.65C678.838 139.517 696.101 121.971 704.369 113.25Z"/>
<path d="M356.762 53.9965C367.857 64.4429 378.006 77.914 388.833 88.307C383.298 92.9441 376.44 103.142 371.665 109.284C366.897 115.418 362.948 119.911 357.718 125.651C351.632 130.188 333.42 100.67 327.994 94.6506C330.88 90.9252 333.762 85.6193 336.936 81.5284C344.657 71.5779 350.949 65.4898 356.762 53.9965Z"/>
<path d="M310.034 116.28C314.126 118.24 335.022 143.606 338.571 149.097C330.456 158.772 316.025 175.66 311.038 187.356C302.843 180.297 293.361 164.137 282.176 153.128C290.922 144.212 302.345 127.102 310.034 116.28Z"/>
<path d="M257.971 31.3118C259.128 31.4044 258.698 31.2549 259.691 32.4098C256.52 43.5402 264.451 43.626 253.809 54.8584C243.742 65.4858 234.875 78.7346 224.864 89.8595C221.08 84.9033 218.428 82.0232 214.131 77.566C198.933 61.6195 200.501 72.9596 201.721 46.2585C207.705 43.8274 221.819 40.9331 228.406 39.3747C238.313 36.924 248.17 34.2357 257.971 31.3118Z"/>
<path d="M652.296 281.317C659.373 286.373 672.607 308.323 680.058 315.313C670.689 326.145 661.073 336.715 651.225 347.015C642.695 338.582 629.357 324.742 622.167 315.391C630.525 303.659 643.197 293.016 652.296 281.317Z"/>
<path d="M700.632 228.145C705.342 230.011 721.219 257.709 724.912 263.914C716.673 270.284 706.129 287.283 696.835 296.942C689.083 286.932 680.007 273.465 672.053 262.763C678.164 255.091 685.631 248.402 691.323 240.206C694.251 235.987 697.254 231.942 700.632 228.145Z"/>
<path d="M747.364 176.083C752.681 180.582 766.648 204.979 771.516 212.315C759.466 222.988 755.37 232.424 744.885 244.466C742.016 242.556 726.154 217.12 719.272 210.161C725.69 197.297 738.721 187.306 747.364 176.083Z"/>
<path d="M745.767 70.8454C750.245 71.7736 770.818 100.903 774.196 106.146C766.774 115.117 756.566 125.846 748.628 134.733C748.014 135.531 748.276 135.181 747.122 135.57C745.954 130.108 727.254 109.259 721.554 97.2266C728.01 89.237 738.263 77.2735 745.767 70.8454Z"/>
<path d="M358.682 281.179C359.776 281.643 363.128 287.991 364.827 290.074C372.106 299 380.686 309.181 388.871 316.959C380.439 325.628 371.962 335.158 363.74 344.134C363.134 344.835 362.714 344.868 361.844 345.243C357.974 342.568 337.981 320.113 334.213 315.479C343.871 303.031 350.503 294.903 358.682 281.179Z"/>
<path d="M311.148 228.115C319.166 235.146 334.69 253.276 338.015 263.91C330.866 274.033 323.513 283.978 315.962 293.736C312.081 293.056 295.625 269.404 289.155 262.799C291.098 258.824 307.759 233.157 311.148 228.115Z"/>
<path d="M834.573 49.9456C847.095 53.9123 859.991 58.5772 872.453 62.8552C880.684 65.6806 889.304 70.6946 897.789 72.5154C894.284 79.0139 888.315 85.2854 883.402 90.6419C877.666 96.9896 873.007 102.111 866.799 107.885C861.744 102.722 858.718 96.0729 854.442 90.5333C844.661 77.8777 840.909 64.8793 834.573 49.9456Z"/>
<path d="M266.147 175.826C268.443 177.737 289.104 204.866 291.613 208.666C286.545 217.866 276.026 230.705 269.801 240.276L268.729 240.323C259.586 230.659 252.524 222.46 246.044 210.303C249.35 202.252 261.001 185.791 266.147 175.826Z"/>
<path d="M180.077 52.8288C181.246 52.9974 180.873 52.9307 181.904 53.9927C182.134 56.149 182.14 59.6711 181.284 61.544C173.843 77.8213 159.204 89.9299 151.878 106.516C148.619 103.728 141.925 96.2055 138.685 92.7677C131.765 85.5572 127.457 80.6997 121.427 72.7077C126.522 71.3683 138.864 66.1238 144.403 64.0917C156.171 59.8736 168.07 56.117 180.077 52.8288Z"/>
<path d="M267.777 73.1229C272.921 76.1265 286.509 93.2086 291.327 98.9811C284.944 109.865 274.25 125.386 265.524 133.768L264.755 133.789C263.263 132.379 260.431 127.457 258.777 125.253C253.891 118.788 248.787 112.529 243.474 106.491C251.058 98.4002 258.937 82.4924 267.777 73.1229Z"/>
<path d="M789.122 128.747C791.937 131.331 808.503 159.309 811.222 163.891C801.771 174.77 802.085 180.386 787.818 192.057C787.107 191.595 767.44 161.211 765.74 158.678C775.948 148.659 780.966 140.532 789.122 128.747Z"/>
<path d="M738.509 288.74C738.644 288.75 738.779 288.739 738.914 288.771C741.917 289.485 754.85 312.888 757.629 317.034C749.451 325.217 741.115 334.534 733.02 343.021L732.675 343.35L731.387 343.232C725.381 333.604 718.768 326.221 714.656 315.433C718.955 309.005 732.967 293.664 738.509 288.74Z"/>
<path d="M271.989 287.72C274.513 288.537 295.182 312.773 297.518 316.448C294.671 322.347 283.614 336.359 279.13 342.257L277.648 342.494C269.868 333.899 262.015 325.388 254.086 316.961C260.129 307.843 266.272 297.203 271.989 287.72Z"/>
<path d="M224.022 132.694C230.802 138.624 241.864 151.961 248.951 159.248C239.654 168.962 235.557 175.938 228.186 187.408L226.614 188.84C223.646 188.25 208.902 167.068 205.376 162.605C212.56 150.526 217.474 148.152 224.022 132.694Z"/>
<path d="M826.419 187.534C828.449 189.02 840.828 215.172 843.637 219.855C838.671 227.846 828.494 237.126 821.409 248.099C819.244 246.012 806.76 220.787 804.319 216.198C811.943 205.643 820.3 200.03 826.419 187.534Z"/>
<path d="M227.785 236.602C236.851 243.625 245.494 256.54 252.16 266.087C246.339 274.591 240.626 283.185 235.024 291.868L233.864 292.396C228.877 291.896 220.344 273.676 215.299 270.331C214.564 269.843 212.285 267.623 211.406 266.869C217.167 258.625 225.122 246.47 227.785 236.602Z"/>
<path d="M783.695 238.163C788.264 241.425 796.794 260.432 799.835 266.563C792.982 276.838 786.114 284.893 778.146 294.076C776.453 292.324 764.441 271.523 762.374 268.006C766.972 252.755 774.222 249.924 783.695 238.163Z"/>
<path d="M829.102 90.7354C830.563 91.701 845.945 118.376 849.218 122.836C841.924 129.453 835.341 136.167 830.563 145.232C826.137 143.742 812.484 119.81 809.878 113.867C814.686 106.83 823.396 98.3379 829.102 90.7354Z"/>
<path d="M188.65 188.277C191.376 189.568 205.037 210.181 208.961 214.891C204.838 222.905 197.95 236.99 192.828 243.732L191.887 244.188C187.66 242.259 176.21 223.996 172.899 218.935C176.061 210.443 184.292 197.989 188.65 188.277Z"/>
<path d="M109.405 76.9096L111.024 77.1558C113.649 85.2555 93.3493 116.014 88.8648 124.275L79.5685 114.347C72.9039 106.835 70.7209 103.539 66.2049 94.2736C79.0308 91.2593 94.5333 81.0867 109.405 76.9096Z"/>
<path d="M188.425 92.205C193.241 96.3647 203.327 108.937 206.863 114.11C201.249 124.507 193.777 132.405 188.046 144.023L168.146 122.443C175.582 114.486 181.024 101.377 188.425 92.205Z"/>
<path d="M905.122 76.5152C916.363 80.8381 927.275 85.1752 937.962 90.9982C941.646 93.0089 945.773 95.2251 949.705 96.4939C946.252 103.237 943.915 106.458 939.332 112.301C935.46 116.838 931.536 121.041 927.507 125.38C920.729 114.695 906.649 88.8591 905.122 76.5152Z"/>
<path d="M864.614 147.862C865.213 148.477 878.626 174.022 880.183 176.875C873.578 186.979 869.856 186.883 862.075 201.52C857.664 190.827 851.32 182.1 846.295 169.193C851.59 162.311 858.72 155.331 864.614 147.862Z"/>
<path d="M814.766 293.837C817.597 296.129 823.693 311.977 827.048 317.39C818.451 324.939 811.838 337.265 806.768 341.54C801.93 333.027 796.485 327.158 792.658 317.233L814.766 293.837Z"/>
<path d="M151.638 147.604C156.372 150.571 165.076 165.278 168.208 170.876C163.926 180.937 158.832 189.198 153.079 198.23C151.074 196.314 150.739 193.767 148.488 190.892C144.674 186.02 140.772 181.853 136.613 177.371C140.526 168.497 147.024 157.471 151.638 147.604Z"/>
<path d="M197.369 292.472C202.567 294.485 213.255 311.915 218.934 317.788C214.869 323.411 210.113 332.644 206.616 338.984C206.081 339.552 206.182 339.337 205.283 339.594C199.775 333.643 190.719 324.448 186.467 317.931L197.369 292.472Z"/>
<path d="M855.575 246.465C856.091 246.975 862.57 265.832 865.176 270.235C858.525 277.006 855.59 290.792 846.168 292.767C842.753 287.796 839.795 276.761 835.803 270.425C842.97 262.402 848.468 251.344 855.575 246.465Z"/>
<path d="M157.009 247.797C162.364 250.309 172.416 263.353 176.643 268.493C173.069 276.364 169.363 284.162 165.526 291.88C164.947 292.377 164.967 292.193 164.056 292.355C147.606 271.408 143.063 273.104 157.009 247.797Z"/>
<path d="M892.591 204.192C894.875 205.707 900.784 222.474 903.727 228.005C897.946 234.918 890.315 243.602 885.469 251.043C884.563 250.099 875.434 227.153 874.31 224.278C879.905 217.728 886.727 210.572 892.591 204.192Z"/>
<path d="M121.022 200.757C122.13 201.607 129.367 212.355 131.126 214.479C134.455 218.5 136.009 220.043 139.967 223.708C136.333 230.936 131.949 238.378 127.964 245.424C126.704 247.202 127.35 246.782 125.582 247.236C121.068 243.494 114.518 230.935 111.366 225.255C113.941 218.514 119.857 207.19 121.022 200.757Z"/>
<path d="M897.551 114.717C902.666 122.215 907.766 131.998 911.818 140.265C904.92 146.59 902.172 150.097 897.019 158.188C893.799 156.995 885.741 135.783 883.097 130.761C887.89 125.759 893.41 120.3 897.551 114.717Z"/>
<path d="M53.6995 102.464L55.2168 102.864C57.4568 109.325 42.9466 134.15 39.4552 140.489C36.3075 137.493 35.4859 136.251 33.0265 132.622C30.3079 127.624 25.5493 122.496 21.6063 118.671C33.1927 113.695 42.6193 107.322 53.6995 102.464Z"/>
<path d="M119.158 115.255C123.361 120.215 129.521 126.039 134.183 130.694C130.246 135.948 125.216 146.377 120.489 153.292C119.927 153.962 119.727 153.888 118.87 154.192C114.657 150.169 110.342 145.139 106.387 140.726C110.268 126.622 113.99 126.431 119.158 115.255Z"/>
<path d="M959.143 101.94C964.82 103.744 981.131 115.713 987.122 119.925L978.472 133.035C976.278 136.736 973.672 140.684 971.365 144.347C969.433 132.87 965.569 128.895 961.951 118.569C960.049 113.162 962.333 108.322 959.143 101.94Z"/>
<path d="M135.413 296.917C142.286 303.512 145.337 306.752 150.968 314.683C150.034 320.746 148.465 332.197 144.903 336.504C138.078 331.024 133.59 325.848 128.102 319.015C129.925 310.95 132.47 304.46 135.413 296.917Z"/>
<path d="M876.109 297.251C877.981 299.359 878.955 311.321 880.797 314.121C881.351 314.966 882.018 316.37 882.527 317.323C878.535 325.091 872.926 331.687 866.156 336.558C864.778 336.939 865.354 336.963 863.827 336.003C861.138 329.506 860.561 323.559 859.887 316.512C870.462 307.778 867.182 304.363 876.109 297.251Z"/>
<path d="M922.521 167.605C922.783 167.612 923.052 167.621 923.314 167.628C923.547 167.468 925.404 168.968 925.404 168.968C928.407 176.223 929.875 182.154 933.739 189.008C928.43 195.064 925.411 200.067 921.277 207.185C920.828 207.347 920.573 207.086 919.929 206.835C916.889 200.101 914.11 192.449 911.422 185.484C913.953 178.014 917.203 172.848 922.521 167.605Z"/>
<path d="M98.6525 253.015C102.519 256.51 112.224 267.851 116.165 272.318C112.596 279.465 110.034 284.069 108.395 292.038C108.09 292.519 107.958 292.389 107.228 292.655C101.207 287.906 97.0184 279.995 92.7758 273.174C95.5333 266.146 97.8923 260.661 98.6525 253.015Z"/>
<path d="M90.2795 166.74C93.2998 169.025 101.909 179.656 104.286 182.89L93.0692 204.065L92.1338 204.288C87.7579 197.976 85.944 195.18 80.8454 189.221C84.3443 180.546 85.8744 175.136 90.2795 166.74Z"/>
<path d="M67.8675 213.141C69.9 214.134 75.3649 225.045 81.8692 230.654C79.9864 239.622 78.5425 244.059 74.6699 252.167L73.3593 252.075C57.6141 229.413 61.5272 239.452 67.8675 213.141Z"/>
<path d="M911.097 255.56C913.239 257.345 915.606 271.774 916.677 276.258C912.116 281.53 908.993 285.753 905.106 291.859C904.013 292.2 903.069 292.494 902.275 292.741C898.868 289.074 897.415 279.113 896.239 273.59C906.514 264.475 903.818 264.728 911.097 255.56Z"/>
<path d="M942.846 216.665C946.575 219.553 946.179 230.053 946.673 234.228C946.733 234.733 948.425 234.71 949.421 237.121C944.823 243.435 942.988 248.196 937.416 252.959C936.54 253.293 935.724 253.079 934.78 252.965C933.013 250.37 931.35 237.786 930.743 233.819C934.466 225.478 936.615 222.839 942.846 216.665Z"/>
<path d="M63.5777 135.16C63.5971 135.175 72.3969 146.82 73.6026 148.239C71.4083 155.253 68.361 161.367 64.883 167.698C49.2629 156.022 58.0357 149.969 63.5777 135.16Z"/>
<path d="M84.6742 299.262C86.387 300.596 93.095 312.243 98.5808 317.055C96.582 320.918 93.9712 328.617 91.9282 333.315L90.8228 333.199C78.4949 314.066 76.5365 323.683 84.6742 299.262Z"/>
<path d="M950.979 135.629C952.274 137.43 957.846 154.2 959.007 157.488C955.435 162.09 952.499 165.505 948.597 169.782C946.934 168.969 945.916 162.047 944.912 159.644C943.684 156.688 942.531 153.815 941.198 150.894C943.819 145.239 947.331 140.484 950.979 135.629Z"/>
<path d="M923.81 299.567C925.413 302.601 924.155 307.36 924.469 310.802C924.589 312.162 926.806 315.199 926.664 316.45C926.237 320.139 916.95 332.504 914.876 335.676C911.198 332.323 911.318 321.807 911.198 316.911C914.95 312.369 921.489 304.78 923.81 299.567Z"/>
<path d="M43.1811 183.366C59.4595 195.659 48.7261 200.859 46.4606 214.233L46.4052 214.57C44.0446 209.406 39.4725 205.685 35.4553 202.101C39.5227 196.79 40.6513 190.28 43.1811 183.366Z"/>
<path d="M968.744 182.603C969.703 186.109 970.998 195.678 972.301 201.07C969.732 208.1 967.156 212.452 962.198 217.583C960.251 210.463 962.61 210.122 957.975 199.441C961.3 192.082 963.517 188.43 968.744 182.603Z"/>
<path d="M53.7922 262.176C58.8144 267.699 60.4942 269.34 64.2208 276.048L64.2455 276.908C64.4156 283.02 65.4902 288.675 61.8535 292.952C56.0127 291.23 53.4365 283.397 50.5891 277.73C52.2517 271.554 52.9804 268.522 53.7922 262.176Z"/>
<path d="M13.4681 126.467C17.3654 131.821 8.10361 149.702 7.87444 158.805L7.86845 159.145L6.99747 159.539L4.45116 155.233L4.1119 154.821C-6.14523 142.326 5.00087 134.888 13.4681 126.467Z"/>
<path d="M28.325 225.363C31.0151 226.637 40.053 241.13 39.516 242.127C36.1264 248.427 35.8261 248.186 36.0216 255.619L35.0719 256.225C22.6474 241.949 26.4542 244.566 28.325 225.363Z"/>
<path d="M951.405 266.547C958.415 270.907 953.659 282.276 951.33 288.308C949.458 290.002 946.417 292.044 944.32 293.553C944.463 279.517 937.677 277.614 951.405 266.547Z"/>
<path d="M956.768 301.784L958.236 303.274C959.067 307.049 958.67 311.88 958.543 315.844C955.323 321.776 952.859 326.906 948.193 331.521C947.369 330.953 947.317 330.604 946.755 329.663C945.362 317.877 950.2 311.862 956.768 301.784Z"/>
<path d="M44.9721 302.758C46.5388 304.136 46.4991 305.729 47.4383 306.938C49.8835 310.088 52.9286 313.396 55.5513 316.331C55.7924 321.351 55.5131 326.657 55.3326 331.702C42.9141 327.713 44.8163 314.195 44.9721 302.758Z"/>
<path d="M22.768 157.334C24.7241 157.946 26.529 159.977 27.8426 161.576C32.1976 166.878 25.3487 174.061 25.0896 182.675L25.0821 182.981C21.4956 181.759 18.8571 175.541 17.1481 172.003C19.3904 166.823 19.0077 161.785 22.768 157.334Z"/>
<path d="M976.359 228.072L977.767 229.395C980.164 243.693 975.356 248.17 970.121 260.602C968.526 244.532 966.826 241.051 976.359 228.072Z"/>
<path d="M991.854 126.135C1002.12 132.991 1001.28 146.279 996.984 156.865L996.655 157.47L995.441 157.557C993.404 153.576 991.352 131.213 991.854 126.135Z"/>
<path d="M983.93 156.61C993.179 162.8 988.618 174.588 985.548 183.525C976.486 178.809 982.245 164.072 983.93 156.61Z"/>
<path d="M13.1775 197.802C16.5342 201.103 18.5143 217.96 13.4187 222.215C11.3734 216.653 7.76739 210.367 8.50132 204.514L8.55899 204.084C8.94917 201.067 10.9907 199.715 13.1775 197.802Z"/>
<path d="M22.6791 271.823C24.6195 271.876 24.8502 271.955 26.6004 272.888C31.4002 279.155 31.031 285.759 30.843 293.684C26.3136 291.753 23.7231 276.744 22.6791 271.823Z"/>
<path d="M990.432 200.101C992.222 202.965 989.167 215.143 988.463 219.683C983.977 216.089 988.253 204.232 990.432 200.101Z"/>
<path d="M973.041 274.552L974.037 275.813C973.977 279.453 971.917 287.042 970.981 290.898C967.334 288.064 971.221 277.935 973.041 274.552Z"/>
</mask>
<path d="M499.093 0.136724C510.476 -0.106691 522.054 0.00826133 533.438 0.221675C539.901 0.343009 543.286 2.00034 550.011 1.15199C551.374 3.20722 548.618 7.81048 547.36 10.1113C544.372 15.5925 544.282 21.3539 543.541 27.8176C539.422 32.2143 533.198 36.9229 528.69 41.3879C522.039 47.9754 516.265 54.7719 510.094 61.9037L504.477 68.1287C493.925 57.0454 474.176 36.3513 465.409 23.2251C463.461 20.31 462.147 7.5185 461.598 3.04155C474.933 2.91002 486.017 0.717043 499.093 0.136724Z" stroke="white" stroke-width="1.7648" mask="url(#path-1-inside-1_459_511)"/>
<path d="M561.287 2.91957C572.783 2.64499 586.772 2.54662 598.163 3.38933C612.063 4.41835 630.269 8.8058 643.78 9.58163C642.963 17.9842 642.746 24.1441 642.596 32.5909C638.822 38.1607 630.247 45.003 625.064 49.4672C619.485 54.6199 611.756 63.4875 606.274 69.3377C592.809 55.3858 574.138 34.26 561.519 19.5303C561.137 14.22 561.272 8.2941 561.287 2.91957Z" stroke="white" stroke-width="1.7648" mask="url(#path-1-inside-1_459_511)"/>
<path d="M438.527 3.3254C443.063 2.7121 448.501 2.87752 453.142 2.87835L453.009 17.012C439.297 34.8105 419.187 52.0601 403.998 72.1995C401.393 68.6192 397.074 63.8116 394.133 60.3461C382.915 47.6061 366.982 37.0125 368.769 17.8085C368.903 16.3751 367.202 14.8555 367.104 12.5778C373.717 10.2307 395.75 8.42486 403.337 7.94192C416.867 7.08081 425.357 5.46567 438.527 3.3254Z" stroke="white" stroke-width="1.7648" mask="url(#path-1-inside-1_459_511)"/>
<path d="M504.101 99.0699C507.726 101.455 538.903 136.821 542.88 141.954C536.087 151.877 515.357 173.169 506.071 184.142L504.798 185.075C499.915 183.47 472.988 148.488 468.258 142.019C480.046 129.04 491.055 113.541 504.101 99.0699Z" stroke="white" stroke-width="1.7648" mask="url(#path-1-inside-1_459_511)"/>
<path d="M555.202 42.4731C561.598 43.8374 586.567 78.2746 592.536 85.316C580.381 96.4052 571.761 112.743 556.97 126.808L555.884 127.07C550.911 125.395 524.287 90.5084 519.299 83.5847C523.74 76.7447 548.425 49.7601 555.202 42.4731Z" stroke="white" stroke-width="1.7648" mask="url(#path-1-inside-1_459_511)"/>
<path d="M555.793 159.472C561.126 161.474 587.705 197.139 593.052 202.482C582.889 212.21 564.264 233.056 555.441 244.148L554.737 244.719C552.655 244.076 540.313 225.634 537.557 222.391C531.611 215.387 524.811 208.487 518.962 201.465C527.709 188.516 545.061 171.231 555.793 159.472Z" stroke="white" stroke-width="1.7648" mask="url(#path-1-inside-1_459_511)"/>
<path d="M455.485 160.287C460.704 162.393 471.553 179.922 476.173 185.119C480.621 190.122 485.893 196.12 490.29 201.186C480.322 216.739 466.19 231.243 453.735 244.676C452.386 243.094 451.536 241.747 450.396 240.015C441.461 226.441 430.305 213.624 418.609 202.938C427.629 190.88 444.395 169.494 455.485 160.287Z" stroke="white" stroke-width="1.7648" mask="url(#path-1-inside-1_459_511)"/>
<path d="M655.764 10.1179C658.325 10.8674 661.074 11.4461 663.71 11.7018C686.529 13.9169 708.787 19.4021 731.427 22.944C735.606 23.5971 742.279 24.3135 745.896 26.4119C746.091 29.5607 729.532 49.752 726.259 54.2394C718.096 64.303 711.963 68.8222 702.197 76.9734C693.764 67.8326 686.642 58.9019 679.228 49.1254C671.364 38.7577 662.804 31.9244 659.314 18.3316C658.782 16.2524 656.775 12.2496 655.764 10.1179Z" stroke="white" stroke-width="1.7648" mask="url(#path-1-inside-1_459_511)"/>
<path d="M453.428 43.1987C456.261 45.0918 467.277 57.8286 470.049 60.9517C477.267 69.2101 484.689 77.2394 492.321 85.0309C481.184 96.8552 466.508 114.199 455.783 124.78C455.215 125.276 454.375 125.35 453.596 125.541C449.766 123.387 423.74 93.1447 417.731 86.7622C431.742 70.1036 441.749 62.8418 453.428 43.1987Z" stroke="white" stroke-width="1.7648" mask="url(#path-1-inside-1_459_511)"/>
<path d="M606.307 102.326C613.385 111.611 621.473 119.87 628.887 128.864C633.471 134.428 636.047 139.783 640.473 145.247C634.886 153.562 613.467 183.527 605.394 186.044C604.158 185.1 602.218 183.6 601.425 182.258C592.977 167.975 581.234 155.104 569.513 143.975C582.994 129.446 593.846 117.944 606.307 102.326Z" stroke="white" stroke-width="1.7648" mask="url(#path-1-inside-1_459_511)"/>
<path d="M505.638 218.37C510.94 220.952 535.272 252.305 540.14 260.193C531.73 270.654 513.898 289.439 504.29 300.292C493.101 286.231 479.695 273.577 468.487 259.788C473.407 252.757 498.942 225.37 505.638 218.37Z" stroke="white" stroke-width="1.7648" mask="url(#path-1-inside-1_459_511)"/>
<path d="M403.755 104.763C403.688 104.739 436.358 141.104 438.724 143.877C432.803 150.015 427.837 157.891 422.366 164.422C416.275 171.693 410.666 177.616 404.972 185.336C404.551 185.591 404.038 185.473 403.477 185.463C393.063 175.032 381.009 157.649 370.878 145.376C381.85 132.325 392.742 116.99 403.755 104.763Z" stroke="white" stroke-width="1.7648" mask="url(#path-1-inside-1_459_511)"/>
<path d="M346.361 14.9731C348.181 14.7954 349.459 14.4276 350.954 15.6147C352.339 18.7177 355.563 24.9873 353.025 28.1528C343.349 40.2249 332.009 50.7372 322.472 63.0011C318.496 68.1136 314.93 73.3508 310.797 78.3591C304.753 72.9347 299.941 67.6122 294.391 61.5913C283.331 49.6859 278.837 43.4226 271.271 28.8192C281.291 28.1425 291.023 24.3895 300.45 22.9518C315.469 20.6612 331.556 16.9943 346.361 14.9731Z" stroke="white" stroke-width="1.7648" mask="url(#path-1-inside-1_459_511)"/>
<path d="M605.705 222.483C612.228 222.719 635.032 255.245 637.601 263.38C628.801 274.331 614.033 289.787 604.402 300.527C595.28 288.119 581.695 271.064 571.891 259.848C575.149 255.187 601.204 226.449 605.705 222.483Z" stroke="white" stroke-width="1.7648" mask="url(#path-1-inside-1_459_511)"/>
<path d="M653.411 51.7037C660.818 55.8355 680.619 84.3356 688.228 92.7976C679.87 102.507 665.671 119.496 656.878 127.663C650.827 124.04 626.435 95.2309 622.481 86.246C627.745 78.7256 646.199 59.8931 653.411 51.7037Z" stroke="white" stroke-width="1.7648" mask="url(#path-1-inside-1_459_511)"/>
<path d="M655.052 164.281C662.511 170.422 681.474 197.112 686.888 206.228C680.238 212.288 674.644 220.988 668.967 228.291C664.361 234.221 660.04 239.091 655.037 244.645C646.327 234.186 638.771 222.627 629.409 212.787C626.915 210.16 624.407 206.946 622.1 204.101C631.094 191.059 648.941 178.609 655.052 164.281Z" stroke="white" stroke-width="1.7648" mask="url(#path-1-inside-1_459_511)"/>
<path d="M555.161 278.033C556.531 278.092 558.463 279.191 559.317 280.318C568.701 292.625 577.681 303.868 587.993 315.323C581.56 323.187 573.569 331.42 566.492 338.63C561.736 343.472 559.018 344.249 554.749 349.988C551.281 345.461 542.991 338.218 538.527 333.996C531.622 327.472 527.294 322.79 521.25 315.285C527.241 307.771 548.585 284.452 555.161 278.033Z" stroke="white" stroke-width="1.7648" mask="url(#path-1-inside-1_459_511)"/>
<path d="M403.853 221.76C414.082 235.188 425.747 246.942 437.089 259.236C425.421 276.373 419.474 282.124 406.187 297.521C403.851 298.596 377.158 264.073 373.817 259.671C383.076 247.328 394.656 234.194 403.853 221.76Z" stroke="white" stroke-width="1.7648" mask="url(#path-1-inside-1_459_511)"/>
<path d="M453.667 278.77C455.483 279.165 485.866 313.333 490.202 317.275C474.43 328.81 469.548 335.053 456.717 349.639L455.816 350C455.989 350.061 424.322 319.682 421.353 316.843C427.712 311.887 443.567 288.508 453.667 278.77Z" stroke="white" stroke-width="1.7648" mask="url(#path-1-inside-1_459_511)"/>
<path d="M748.63 27.6817C758.261 30.093 768.529 31.5778 778.332 34.1154C794.576 38.3169 811.179 43.6837 827.52 47.1169C821.731 53.0805 820.286 59.7503 817.575 67.8585C815.268 68.8489 813.284 69.8161 811.029 70.9581C804.664 75.1195 795.37 85.5954 789.618 91.687C779.785 72.6489 763.683 60.4165 755.026 40.9516C752.906 36.2023 751.116 32.246 748.63 27.6817Z" stroke="white" stroke-width="1.7648" mask="url(#path-1-inside-1_459_511)"/>
<path d="M356.031 166.848C356.854 166.99 385.55 199.115 388.545 202.48C384.329 206.465 379.546 214.163 375.641 218.994C369.984 225.991 364.196 232.72 358.357 239.523C357.958 240.354 357.337 240.576 356.568 241.031C350.463 236.819 335.1 214.051 327.913 206.383C336.86 190.268 344.632 181.005 356.031 166.848Z" stroke="white" stroke-width="1.7648" mask="url(#path-1-inside-1_459_511)"/>
<path d="M704.369 113.25C705.597 114.931 705.964 116.409 706.952 117.878C714.906 129.638 724.934 139.482 730.985 152.799C725.78 161.189 710.667 182.579 702.803 187.676L702.219 186.498C700.662 184.07 699.021 181.81 697.142 179.681C688.334 169.715 680.441 158.979 672.001 148.65C678.838 139.517 696.101 121.971 704.369 113.25Z" stroke="white" stroke-width="1.7648" mask="url(#path-1-inside-1_459_511)"/>
<path d="M356.762 53.9965C367.857 64.4429 378.006 77.914 388.833 88.307C383.298 92.9441 376.44 103.142 371.665 109.284C366.897 115.418 362.948 119.911 357.718 125.651C351.632 130.188 333.42 100.67 327.994 94.6506C330.88 90.9252 333.762 85.6193 336.936 81.5284C344.657 71.5779 350.949 65.4898 356.762 53.9965Z" stroke="white" stroke-width="1.7648" mask="url(#path-1-inside-1_459_511)"/>
<path d="M310.034 116.28C314.126 118.24 335.022 143.606 338.571 149.097C330.456 158.772 316.025 175.66 311.038 187.356C302.843 180.297 293.361 164.137 282.176 153.128C290.922 144.212 302.345 127.102 310.034 116.28Z" stroke="white" stroke-width="1.7648" mask="url(#path-1-inside-1_459_511)"/>
<path d="M257.971 31.3118C259.128 31.4044 258.698 31.2549 259.691 32.4098C256.52 43.5402 264.451 43.626 253.809 54.8584C243.742 65.4858 234.875 78.7346 224.864 89.8595C221.08 84.9033 218.428 82.0232 214.131 77.566C198.933 61.6195 200.501 72.9596 201.721 46.2585C207.705 43.8274 221.819 40.9331 228.406 39.3747C238.313 36.924 248.17 34.2357 257.971 31.3118Z" stroke="white" stroke-width="1.7648" mask="url(#path-1-inside-1_459_511)"/>
<path d="M652.296 281.317C659.373 286.373 672.607 308.323 680.058 315.313C670.689 326.145 661.073 336.715 651.225 347.015C642.695 338.582 629.357 324.742 622.167 315.391C630.525 303.659 643.197 293.016 652.296 281.317Z" stroke="white" stroke-width="1.7648" mask="url(#path-1-inside-1_459_511)"/>
<path d="M700.632 228.145C705.342 230.011 721.219 257.709 724.912 263.914C716.673 270.284 706.129 287.283 696.835 296.942C689.083 286.932 680.007 273.465 672.053 262.763C678.164 255.091 685.631 248.402 691.323 240.206C694.251 235.987 697.254 231.942 700.632 228.145Z" stroke="white" stroke-width="1.7648" mask="url(#path-1-inside-1_459_511)"/>
<path d="M747.364 176.083C752.681 180.582 766.648 204.979 771.516 212.315C759.466 222.988 755.37 232.424 744.885 244.466C742.016 242.556 726.154 217.12 719.272 210.161C725.69 197.297 738.721 187.306 747.364 176.083Z" stroke="white" stroke-width="1.7648" mask="url(#path-1-inside-1_459_511)"/>
<path d="M745.767 70.8454C750.245 71.7736 770.818 100.903 774.196 106.146C766.774 115.117 756.566 125.846 748.628 134.733C748.014 135.531 748.276 135.181 747.122 135.57C745.954 130.108 727.254 109.259 721.554 97.2266C728.01 89.237 738.263 77.2735 745.767 70.8454Z" stroke="white" stroke-width="1.7648" mask="url(#path-1-inside-1_459_511)"/>
<path d="M358.682 281.179C359.776 281.643 363.128 287.991 364.827 290.074C372.106 299 380.686 309.181 388.871 316.959C380.439 325.628 371.962 335.158 363.74 344.134C363.134 344.835 362.714 344.868 361.844 345.243C357.974 342.568 337.981 320.113 334.213 315.479C343.871 303.031 350.503 294.903 358.682 281.179Z" stroke="white" stroke-width="1.7648" mask="url(#path-1-inside-1_459_511)"/>
<path d="M311.148 228.115C319.166 235.146 334.69 253.276 338.015 263.91C330.866 274.033 323.513 283.978 315.962 293.736C312.081 293.056 295.625 269.404 289.155 262.799C291.098 258.824 307.759 233.157 311.148 228.115Z" stroke="white" stroke-width="1.7648" mask="url(#path-1-inside-1_459_511)"/>
<path d="M834.573 49.9456C847.095 53.9123 859.991 58.5772 872.453 62.8552C880.684 65.6806 889.304 70.6946 897.789 72.5154C894.284 79.0139 888.315 85.2854 883.402 90.6419C877.666 96.9896 873.007 102.111 866.799 107.885C861.744 102.722 858.718 96.0729 854.442 90.5333C844.661 77.8777 840.909 64.8793 834.573 49.9456Z" stroke="white" stroke-width="1.7648" mask="url(#path-1-inside-1_459_511)"/>
<path d="M266.147 175.826C268.443 177.737 289.104 204.866 291.613 208.666C286.545 217.866 276.026 230.705 269.801 240.276L268.729 240.323C259.586 230.659 252.524 222.46 246.044 210.303C249.35 202.252 261.001 185.791 266.147 175.826Z" stroke="white" stroke-width="1.7648" mask="url(#path-1-inside-1_459_511)"/>
<path d="M180.077 52.8288C181.246 52.9974 180.873 52.9307 181.904 53.9927C182.134 56.149 182.14 59.6711 181.284 61.544C173.843 77.8213 159.204 89.9299 151.878 106.516C148.619 103.728 141.925 96.2055 138.685 92.7677C131.765 85.5572 127.457 80.6997 121.427 72.7077C126.522 71.3683 138.864 66.1238 144.403 64.0917C156.171 59.8736 168.07 56.117 180.077 52.8288Z" stroke="white" stroke-width="1.7648" mask="url(#path-1-inside-1_459_511)"/>
<path d="M267.777 73.1229C272.921 76.1265 286.509 93.2086 291.327 98.9811C284.944 109.865 274.25 125.386 265.524 133.768L264.755 133.789C263.263 132.379 260.431 127.457 258.777 125.253C253.891 118.788 248.787 112.529 243.474 106.491C251.058 98.4002 258.937 82.4924 267.777 73.1229Z" stroke="white" stroke-width="1.7648" mask="url(#path-1-inside-1_459_511)"/>
<path d="M789.122 128.747C791.937 131.331 808.503 159.309 811.222 163.891C801.771 174.77 802.085 180.386 787.818 192.057C787.107 191.595 767.44 161.211 765.74 158.678C775.948 148.659 780.966 140.532 789.122 128.747Z" stroke="white" stroke-width="1.7648" mask="url(#path-1-inside-1_459_511)"/>
<path d="M738.509 288.74C738.644 288.75 738.779 288.739 738.914 288.771C741.917 289.485 754.85 312.888 757.629 317.034C749.451 325.217 741.115 334.534 733.02 343.021L732.675 343.35L731.387 343.232C725.381 333.604 718.768 326.221 714.656 315.433C718.955 309.005 732.967 293.664 738.509 288.74Z" stroke="white" stroke-width="1.7648" mask="url(#path-1-inside-1_459_511)"/>
<path d="M271.989 287.72C274.513 288.537 295.182 312.773 297.518 316.448C294.671 322.347 283.614 336.359 279.13 342.257L277.648 342.494C269.868 333.899 262.015 325.388 254.086 316.961C260.129 307.843 266.272 297.203 271.989 287.72Z" stroke="white" stroke-width="1.7648" mask="url(#path-1-inside-1_459_511)"/>
<path d="M224.022 132.694C230.802 138.624 241.864 151.961 248.951 159.248C239.654 168.962 235.557 175.938 228.186 187.408L226.614 188.84C223.646 188.25 208.902 167.068 205.376 162.605C212.56 150.526 217.474 148.152 224.022 132.694Z" stroke="white" stroke-width="1.7648" mask="url(#path-1-inside-1_459_511)"/>
<path d="M826.419 187.534C828.449 189.02 840.828 215.172 843.637 219.855C838.671 227.846 828.494 237.126 821.409 248.099C819.244 246.012 806.76 220.787 804.319 216.198C811.943 205.643 820.3 200.03 826.419 187.534Z" stroke="white" stroke-width="1.7648" mask="url(#path-1-inside-1_459_511)"/>
<path d="M227.785 236.602C236.851 243.625 245.494 256.54 252.16 266.087C246.339 274.591 240.626 283.185 235.024 291.868L233.864 292.396C228.877 291.896 220.344 273.676 215.299 270.331C214.564 269.843 212.285 267.623 211.406 266.869C217.167 258.625 225.122 246.47 227.785 236.602Z" stroke="white" stroke-width="1.7648" mask="url(#path-1-inside-1_459_511)"/>
<path d="M783.695 238.163C788.264 241.425 796.794 260.432 799.835 266.563C792.982 276.838 786.114 284.893 778.146 294.076C776.453 292.324 764.441 271.523 762.374 268.006C766.972 252.755 774.222 249.924 783.695 238.163Z" stroke="white" stroke-width="1.7648" mask="url(#path-1-inside-1_459_511)"/>
<path d="M829.102 90.7354C830.563 91.701 845.945 118.376 849.218 122.836C841.924 129.453 835.341 136.167 830.563 145.232C826.137 143.742 812.484 119.81 809.878 113.867C814.686 106.83 823.396 98.3379 829.102 90.7354Z" stroke="white" stroke-width="1.7648" mask="url(#path-1-inside-1_459_511)"/>
<path d="M188.65 188.277C191.376 189.568 205.037 210.181 208.961 214.891C204.838 222.905 197.95 236.99 192.828 243.732L191.887 244.188C187.66 242.259 176.21 223.996 172.899 218.935C176.061 210.443 184.292 197.989 188.65 188.277Z" stroke="white" stroke-width="1.7648" mask="url(#path-1-inside-1_459_511)"/>
<path d="M109.405 76.9096L111.024 77.1558C113.649 85.2555 93.3493 116.014 88.8648 124.275L79.5685 114.347C72.9039 106.835 70.7209 103.539 66.2049 94.2736C79.0308 91.2593 94.5333 81.0867 109.405 76.9096Z" stroke="white" stroke-width="1.7648" mask="url(#path-1-inside-1_459_511)"/>
<path d="M188.425 92.205C193.241 96.3647 203.327 108.937 206.863 114.11C201.249 124.507 193.777 132.405 188.046 144.023L168.146 122.443C175.582 114.486 181.024 101.377 188.425 92.205Z" stroke="white" stroke-width="1.7648" mask="url(#path-1-inside-1_459_511)"/>
<path d="M905.122 76.5152C916.363 80.8381 927.275 85.1752 937.962 90.9982C941.646 93.0089 945.773 95.2251 949.705 96.4939C946.252 103.237 943.915 106.458 939.332 112.301C935.46 116.838 931.536 121.041 927.507 125.38C920.729 114.695 906.649 88.8591 905.122 76.5152Z" stroke="white" stroke-width="1.7648" mask="url(#path-1-inside-1_459_511)"/>
<path d="M864.614 147.862C865.213 148.477 878.626 174.022 880.183 176.875C873.578 186.979 869.856 186.883 862.075 201.52C857.664 190.827 851.32 182.1 846.295 169.193C851.59 162.311 858.72 155.331 864.614 147.862Z" stroke="white" stroke-width="1.7648" mask="url(#path-1-inside-1_459_511)"/>
<path d="M814.766 293.837C817.597 296.129 823.693 311.977 827.048 317.39C818.451 324.939 811.838 337.265 806.768 341.54C801.93 333.027 796.485 327.158 792.658 317.233L814.766 293.837Z" stroke="white" stroke-width="1.7648" mask="url(#path-1-inside-1_459_511)"/>
<path d="M151.638 147.604C156.372 150.571 165.076 165.278 168.208 170.876C163.926 180.937 158.832 189.198 153.079 198.23C151.074 196.314 150.739 193.767 148.488 190.892C144.674 186.02 140.772 181.853 136.613 177.371C140.526 168.497 147.024 157.471 151.638 147.604Z" stroke="white" stroke-width="1.7648" mask="url(#path-1-inside-1_459_511)"/>
<path d="M197.369 292.472C202.567 294.485 213.255 311.915 218.934 317.788C214.869 323.411 210.113 332.644 206.616 338.984C206.081 339.552 206.182 339.337 205.283 339.594C199.775 333.643 190.719 324.448 186.467 317.931L197.369 292.472Z" stroke="white" stroke-width="1.7648" mask="url(#path-1-inside-1_459_511)"/>
<path d="M855.575 246.465C856.091 246.975 862.57 265.832 865.176 270.235C858.525 277.006 855.59 290.792 846.168 292.767C842.753 287.796 839.795 276.761 835.803 270.425C842.97 262.402 848.468 251.344 855.575 246.465Z" stroke="white" stroke-width="1.7648" mask="url(#path-1-inside-1_459_511)"/>
<path d="M157.009 247.797C162.364 250.309 172.416 263.353 176.643 268.493C173.069 276.364 169.363 284.162 165.526 291.88C164.947 292.377 164.967 292.193 164.056 292.355C147.606 271.408 143.063 273.104 157.009 247.797Z" stroke="white" stroke-width="1.7648" mask="url(#path-1-inside-1_459_511)"/>
<path d="M892.591 204.192C894.875 205.707 900.784 222.474 903.727 228.005C897.946 234.918 890.315 243.602 885.469 251.043C884.563 250.099 875.434 227.153 874.31 224.278C879.905 217.728 886.727 210.572 892.591 204.192Z" stroke="white" stroke-width="1.7648" mask="url(#path-1-inside-1_459_511)"/>
<path d="M121.022 200.757C122.13 201.607 129.367 212.355 131.126 214.479C134.455 218.5 136.009 220.043 139.967 223.708C136.333 230.936 131.949 238.378 127.964 245.424C126.704 247.202 127.35 246.782 125.582 247.236C121.068 243.494 114.518 230.935 111.366 225.255C113.941 218.514 119.857 207.19 121.022 200.757Z" stroke="white" stroke-width="1.7648" mask="url(#path-1-inside-1_459_511)"/>
<path d="M897.551 114.717C902.666 122.215 907.766 131.998 911.818 140.265C904.92 146.59 902.172 150.097 897.019 158.188C893.799 156.995 885.741 135.783 883.097 130.761C887.89 125.759 893.41 120.3 897.551 114.717Z" stroke="white" stroke-width="1.7648" mask="url(#path-1-inside-1_459_511)"/>
<path d="M53.6995 102.464L55.2168 102.864C57.4568 109.325 42.9466 134.15 39.4552 140.489C36.3075 137.493 35.4859 136.251 33.0265 132.622C30.3079 127.624 25.5493 122.496 21.6063 118.671C33.1927 113.695 42.6193 107.322 53.6995 102.464Z" stroke="white" stroke-width="1.7648" mask="url(#path-1-inside-1_459_511)"/>
<path d="M119.158 115.255C123.361 120.215 129.521 126.039 134.183 130.694C130.246 135.948 125.216 146.377 120.489 153.292C119.927 153.962 119.727 153.888 118.87 154.192C114.657 150.169 110.342 145.139 106.387 140.726C110.268 126.622 113.99 126.431 119.158 115.255Z" stroke="white" stroke-width="1.7648" mask="url(#path-1-inside-1_459_511)"/>
<path d="M959.143 101.94C964.82 103.744 981.131 115.713 987.122 119.925L978.472 133.035C976.278 136.736 973.672 140.684 971.365 144.347C969.433 132.87 965.569 128.895 961.951 118.569C960.049 113.162 962.333 108.322 959.143 101.94Z" stroke="white" stroke-width="1.7648" mask="url(#path-1-inside-1_459_511)"/>
<path d="M135.413 296.917C142.286 303.512 145.337 306.752 150.968 314.683C150.034 320.746 148.465 332.197 144.903 336.504C138.078 331.024 133.59 325.848 128.102 319.015C129.925 310.95 132.47 304.46 135.413 296.917Z" stroke="white" stroke-width="1.7648" mask="url(#path-1-inside-1_459_511)"/>
<path d="M876.109 297.251C877.981 299.359 878.955 311.321 880.797 314.121C881.351 314.966 882.018 316.37 882.527 317.323C878.535 325.091 872.926 331.687 866.156 336.558C864.778 336.939 865.354 336.963 863.827 336.003C861.138 329.506 860.561 323.559 859.887 316.512C870.462 307.778 867.182 304.363 876.109 297.251Z" stroke="white" stroke-width="1.7648" mask="url(#path-1-inside-1_459_511)"/>
<path d="M922.521 167.605C922.783 167.612 923.052 167.621 923.314 167.628C923.547 167.468 925.404 168.968 925.404 168.968C928.407 176.223 929.875 182.154 933.739 189.008C928.43 195.064 925.411 200.067 921.277 207.185C920.828 207.347 920.573 207.086 919.929 206.835C916.889 200.101 914.11 192.449 911.422 185.484C913.953 178.014 917.203 172.848 922.521 167.605Z" stroke="white" stroke-width="1.7648" mask="url(#path-1-inside-1_459_511)"/>
<path d="M98.6525 253.015C102.519 256.51 112.224 267.851 116.165 272.318C112.596 279.465 110.034 284.069 108.395 292.038C108.09 292.519 107.958 292.389 107.228 292.655C101.207 287.906 97.0184 279.995 92.7758 273.174C95.5333 266.146 97.8923 260.661 98.6525 253.015Z" stroke="white" stroke-width="1.7648" mask="url(#path-1-inside-1_459_511)"/>
<path d="M90.2795 166.74C93.2998 169.025 101.909 179.656 104.286 182.89L93.0692 204.065L92.1338 204.288C87.7579 197.976 85.944 195.18 80.8454 189.221C84.3443 180.546 85.8744 175.136 90.2795 166.74Z" stroke="white" stroke-width="1.7648" mask="url(#path-1-inside-1_459_511)"/>
<path d="M67.8675 213.141C69.9 214.134 75.3649 225.045 81.8692 230.654C79.9864 239.622 78.5425 244.059 74.6699 252.167L73.3593 252.075C57.6141 229.413 61.5272 239.452 67.8675 213.141Z" stroke="white" stroke-width="1.7648" mask="url(#path-1-inside-1_459_511)"/>
<path d="M911.097 255.56C913.239 257.345 915.606 271.774 916.677 276.258C912.116 281.53 908.993 285.753 905.106 291.859C904.013 292.2 903.069 292.494 902.275 292.741C898.868 289.074 897.415 279.113 896.239 273.59C906.514 264.475 903.818 264.728 911.097 255.56Z" stroke="white" stroke-width="1.7648" mask="url(#path-1-inside-1_459_511)"/>
<path d="M942.846 216.665C946.575 219.553 946.179 230.053 946.673 234.228C946.733 234.733 948.425 234.71 949.421 237.121C944.823 243.435 942.988 248.196 937.416 252.959C936.54 253.293 935.724 253.079 934.78 252.965C933.013 250.37 931.35 237.786 930.743 233.819C934.466 225.478 936.615 222.839 942.846 216.665Z" stroke="white" stroke-width="1.7648" mask="url(#path-1-inside-1_459_511)"/>
<path d="M63.5777 135.16C63.5971 135.175 72.3969 146.82 73.6026 148.239C71.4083 155.253 68.361 161.367 64.883 167.698C49.2629 156.022 58.0357 149.969 63.5777 135.16Z" stroke="white" stroke-width="1.7648" mask="url(#path-1-inside-1_459_511)"/>
<path d="M84.6742 299.262C86.387 300.596 93.095 312.243 98.5808 317.055C96.582 320.918 93.9712 328.617 91.9282 333.315L90.8228 333.199C78.4949 314.066 76.5365 323.683 84.6742 299.262Z" stroke="white" stroke-width="1.7648" mask="url(#path-1-inside-1_459_511)"/>
<path d="M950.979 135.629C952.274 137.43 957.846 154.2 959.007 157.488C955.435 162.09 952.499 165.505 948.597 169.782C946.934 168.969 945.916 162.047 944.912 159.644C943.684 156.688 942.531 153.815 941.198 150.894C943.819 145.239 947.331 140.484 950.979 135.629Z" stroke="white" stroke-width="1.7648" mask="url(#path-1-inside-1_459_511)"/>
<path d="M923.81 299.567C925.413 302.601 924.155 307.36 924.469 310.802C924.589 312.162 926.806 315.199 926.664 316.45C926.237 320.139 916.95 332.504 914.876 335.676C911.198 332.323 911.318 321.807 911.198 316.911C914.95 312.369 921.489 304.78 923.81 299.567Z" stroke="white" stroke-width="1.7648" mask="url(#path-1-inside-1_459_511)"/>
<path d="M43.1811 183.366C59.4595 195.659 48.7261 200.859 46.4606 214.233L46.4052 214.57C44.0446 209.406 39.4725 205.685 35.4553 202.101C39.5227 196.79 40.6513 190.28 43.1811 183.366Z" stroke="white" stroke-width="1.7648" mask="url(#path-1-inside-1_459_511)"/>
<path d="M968.744 182.603C969.703 186.109 970.998 195.678 972.301 201.07C969.732 208.1 967.156 212.452 962.198 217.583C960.251 210.463 962.61 210.122 957.975 199.441C961.3 192.082 963.517 188.43 968.744 182.603Z" stroke="white" stroke-width="1.7648" mask="url(#path-1-inside-1_459_511)"/>
<path d="M53.7922 262.176C58.8144 267.699 60.4942 269.34 64.2208 276.048L64.2455 276.908C64.4156 283.02 65.4902 288.675 61.8535 292.952C56.0127 291.23 53.4365 283.397 50.5891 277.73C52.2517 271.554 52.9804 268.522 53.7922 262.176Z" stroke="white" stroke-width="1.7648" mask="url(#path-1-inside-1_459_511)"/>
<path d="M13.4681 126.467C17.3654 131.821 8.10361 149.702 7.87444 158.805L7.86845 159.145L6.99747 159.539L4.45116 155.233L4.1119 154.821C-6.14523 142.326 5.00087 134.888 13.4681 126.467Z" stroke="white" stroke-width="1.7648" mask="url(#path-1-inside-1_459_511)"/>
<path d="M28.325 225.363C31.0151 226.637 40.053 241.13 39.516 242.127C36.1264 248.427 35.8261 248.186 36.0216 255.619L35.0719 256.225C22.6474 241.949 26.4542 244.566 28.325 225.363Z" stroke="white" stroke-width="1.7648" mask="url(#path-1-inside-1_459_511)"/>
<path d="M951.405 266.547C958.415 270.907 953.659 282.276 951.33 288.308C949.458 290.002 946.417 292.044 944.32 293.553C944.463 279.517 937.677 277.614 951.405 266.547Z" stroke="white" stroke-width="1.7648" mask="url(#path-1-inside-1_459_511)"/>
<path d="M956.768 301.784L958.236 303.274C959.067 307.049 958.67 311.88 958.543 315.844C955.323 321.776 952.859 326.906 948.193 331.521C947.369 330.953 947.317 330.604 946.755 329.663C945.362 317.877 950.2 311.862 956.768 301.784Z" stroke="white" stroke-width="1.7648" mask="url(#path-1-inside-1_459_511)"/>
<path d="M44.9721 302.758C46.5388 304.136 46.4991 305.729 47.4383 306.938C49.8835 310.088 52.9286 313.396 55.5513 316.331C55.7924 321.351 55.5131 326.657 55.3326 331.702C42.9141 327.713 44.8163 314.195 44.9721 302.758Z" stroke="white" stroke-width="1.7648" mask="url(#path-1-inside-1_459_511)"/>
<path d="M22.768 157.334C24.7241 157.946 26.529 159.977 27.8426 161.576C32.1976 166.878 25.3487 174.061 25.0896 182.675L25.0821 182.981C21.4956 181.759 18.8571 175.541 17.1481 172.003C19.3904 166.823 19.0077 161.785 22.768 157.334Z" stroke="white" stroke-width="1.7648" mask="url(#path-1-inside-1_459_511)"/>
<path d="M976.359 228.072L977.767 229.395C980.164 243.693 975.356 248.17 970.121 260.602C968.526 244.532 966.826 241.051 976.359 228.072Z" stroke="white" stroke-width="1.7648" mask="url(#path-1-inside-1_459_511)"/>
<path d="M991.854 126.135C1002.12 132.991 1001.28 146.279 996.984 156.865L996.655 157.47L995.441 157.557C993.404 153.576 991.352 131.213 991.854 126.135Z" stroke="white" stroke-width="1.7648" mask="url(#path-1-inside-1_459_511)"/>
<path d="M983.93 156.61C993.179 162.8 988.618 174.588 985.548 183.525C976.486 178.809 982.245 164.072 983.93 156.61Z" stroke="white" stroke-width="1.7648" mask="url(#path-1-inside-1_459_511)"/>
<path d="M13.1775 197.802C16.5342 201.103 18.5143 217.96 13.4187 222.215C11.3734 216.653 7.76739 210.367 8.50132 204.514L8.55899 204.084C8.94917 201.067 10.9907 199.715 13.1775 197.802Z" stroke="white" stroke-width="1.7648" mask="url(#path-1-inside-1_459_511)"/>
<path d="M22.6791 271.823C24.6195 271.876 24.8502 271.955 26.6004 272.888C31.4002 279.155 31.031 285.759 30.843 293.684C26.3136 291.753 23.7231 276.744 22.6791 271.823Z" stroke="white" stroke-width="1.7648" mask="url(#path-1-inside-1_459_511)"/>
<path d="M990.432 200.101C992.222 202.965 989.167 215.143 988.463 219.683C983.977 216.089 988.253 204.232 990.432 200.101Z" stroke="white" stroke-width="1.7648" mask="url(#path-1-inside-1_459_511)"/>
<path d="M973.041 274.552L974.037 275.813C973.977 279.453 971.917 287.042 970.981 290.898C967.334 288.064 971.221 277.935 973.041 274.552Z" stroke="white" stroke-width="1.7648" mask="url(#path-1-inside-1_459_511)"/>
</svg>
