<svg width="42" height="42" viewBox="0 0 42 42" fill="none" xmlns="http://www.w3.org/2000/svg">
<path d="M32.3024 15.1248C32.4752 14.5721 32.3024 14.1704 31.5381 14.1704H28.9966C28.3555 14.1704 28.0595 14.5222 27.8867 14.8984C27.8867 14.8984 26.5793 18.1126 24.7537 20.1963C24.1616 20.799 23.8903 20.9999 23.5695 20.9999C23.3968 20.9999 23.1745 20.799 23.1745 20.2468V15.0988C23.1745 14.4462 22.9775 14.1449 22.4344 14.1449H18.4375C18.0425 14.1449 17.796 14.4462 17.796 14.7475C17.796 15.3752 18.7088 15.5261 18.8073 17.2836V21.1023C18.8073 21.9308 18.6618 22.0822 18.3385 22.0822C17.4752 22.0822 15.3782 18.8431 14.1204 15.1522C13.8758 14.4212 13.6273 14.1449 12.9857 14.1449H10.42C9.67991 14.1449 9.55664 14.4962 9.55664 14.873C9.55664 15.5511 10.42 18.9656 13.5778 23.4849C15.6748 26.5717 18.6598 28.2306 21.3488 28.2306C22.9775 28.2306 23.1745 27.8539 23.1745 27.2262V24.8911C23.1745 24.138 23.3225 24.0126 23.8408 24.0126C24.2106 24.0126 24.8769 24.213 26.3818 25.6946C28.1085 27.4521 28.4045 28.2556 29.3669 28.2556H31.9079C32.648 28.2556 32.9935 27.8789 32.796 27.1508C32.5742 26.4227 31.7351 25.3683 30.6495 24.1131C30.0575 23.4105 29.1694 22.6319 28.8981 22.2551C28.5283 21.7529 28.6268 21.5521 28.8981 21.1003C28.8733 21.1003 31.9821 16.6309 32.3024 15.1228" stroke="white"/>
<ellipse cx="20.6743" cy="20.6745" rx="20.1177" ry="20.1175" stroke="white" stroke-width="1.11409"/>
</svg>
